<svg version="1.1" id="Layer_1" xmlns="http://www.w3.org/2000/svg" xmlns:xlink="http://www.w3.org/1999/xlink" x="0px" y="0px"
	 width="100%" viewBox="0 0 1587 365" enable-background="new 0 0 1587 365" xml:space="preserve">
<path fill="#000000" opacity="1.000000" stroke="none" fill-opacity="0"
	d="
M487.000000,366.000000
	C325.093384,366.000000 163.186783,366.000000 1.000000,366.000000
	C1.000000,280.642792 1.000000,195.285278 1.322450,109.170242
	C2.094011,109.045807 2.706244,109.618385 2.967040,110.321342
	C5.622618,117.479263 8.686866,124.290802 15.142636,129.043152
	C26.172573,137.162750 38.508995,137.674561 50.941715,134.382599
	C62.491741,131.324341 73.682655,126.909828 84.951431,123.119446
	C84.951431,123.360428 85.067886,124.367683 84.933350,125.340202
	C83.646461,134.642563 81.564178,143.910995 81.216263,153.245300
	C80.882469,162.200745 81.620575,171.349609 83.189667,180.182159
	C84.992828,190.332352 88.446808,200.031281 96.126305,207.723923
	C103.559608,215.169952 112.345131,218.710922 122.719536,220.201782
	C136.914581,222.241730 150.013199,219.375961 163.122910,214.512375
	C174.220871,210.395157 183.677322,203.019073 195.401184,199.947113
	C214.438339,194.958878 228.747833,182.438919 240.266037,167.087692
	C261.012390,139.437347 270.697784,108.491753 264.921143,73.783943
	C262.182678,57.330372 253.307724,43.929031 240.168381,34.198410
	C222.491333,21.107294 202.349686,20.281414 181.653458,25.763987
	C163.279358,30.631411 147.323593,40.092377 132.411652,51.565605
	C132.148849,51.201824 132.035965,51.062016 131.956299,50.558708
	C130.315903,48.795719 128.756226,47.224380 126.949150,46.026173
	C118.673210,40.538727 109.642296,36.788624 99.704636,36.079651
	C89.850677,35.376644 79.769180,34.045433 70.116135,35.375320
	C59.632820,36.819592 49.101017,40.024349 39.354786,44.232079
	C23.010836,51.288235 9.053673,61.554310 2.940830,79.547318
	C2.726400,80.178482 1.666071,80.522270 0.999999,81.000000
	C1.000000,54.341843 1.000000,27.683683 1.000000,1.000000
	C421.024078,1.000000 841.048157,1.000000 1261.833496,1.343166
	C1261.942017,2.119643 1261.341309,2.799521 1260.628784,2.949924
	C1245.646362,6.112579 1232.017700,11.817174 1219.792603,21.471666
	C1201.186279,36.165531 1197.171875,52.856697 1201.205811,73.780251
	C1202.758545,81.833870 1206.780762,89.368172 1213.440430,94.754570
	C1223.348999,102.768669 1235.335938,103.525703 1246.979858,101.730186
	C1262.283325,99.370361 1276.328857,92.784096 1289.756836,85.057449
	C1292.085327,83.717552 1294.656372,82.799080 1297.317871,81.594276
	C1301.278687,91.946053 1301.566040,102.026978 1300.139893,112.583199
	C1297.177124,134.514038 1287.582764,153.237244 1274.257324,170.436249
	C1272.069336,173.260468 1271.157471,171.775726 1269.781982,169.912552
	C1277.224121,162.011948 1283.600708,153.729019 1287.070068,143.535507
	C1291.319580,131.049332 1289.807251,119.761650 1278.945190,116.801506
	C1270.310059,114.448265 1261.299927,114.874519 1253.678223,121.679382
	C1245.139038,129.303528 1243.333618,143.737991 1249.227051,155.365143
	C1252.245361,161.319824 1256.401367,166.697769 1260.297119,172.729401
	C1255.993286,176.466705 1251.773682,180.130890 1247.406006,183.570251
	C1247.144409,183.206070 1247.031128,183.066757 1246.956177,182.517426
	C1250.246338,172.693970 1249.609131,163.587219 1243.804932,155.418213
	C1235.656372,143.949570 1223.785767,138.827454 1210.172363,138.184723
	C1204.361938,137.910400 1198.455811,139.662125 1192.583252,140.494598
	C1193.974487,131.928223 1193.370850,123.663338 1185.852295,117.307144
	C1178.269775,110.896927 1165.666992,112.800301 1161.598267,121.063148
	C1160.877197,122.340248 1160.475830,123.481613 1160.074341,124.622978
	C1160.307495,124.714081 1160.540649,124.805183 1160.773804,124.896286
	C1161.378906,123.853600 1161.984009,122.810913 1162.855225,121.539665
	C1166.806030,119.541260 1170.410400,116.522736 1174.193237,116.279503
	C1180.683472,115.862190 1186.149414,122.251511 1188.567139,131.036850
	C1190.316040,137.391785 1188.130859,143.097275 1182.492798,147.032257
	C1181.031738,148.052032 1179.487183,149.028015 1178.259277,150.294128
	C1167.073364,161.827682 1162.826294,175.400787 1165.951660,191.323120
	C1170.207886,213.007828 1188.172974,226.228729 1208.334106,226.958389
	C1231.083862,227.781693 1249.691284,218.007462 1266.089600,203.296692
	C1270.872681,199.005875 1274.981201,193.963181 1278.970581,189.720779
	C1293.787476,196.492050 1307.325684,203.164169 1321.241333,208.924881
	C1342.245483,217.620041 1363.302368,226.278641 1384.737793,233.811691
	C1400.763428,239.443558 1417.397217,242.724609 1434.775635,241.146469
	C1447.499756,239.990982 1457.967285,235.246780 1465.969238,225.416901
	C1470.881836,219.382172 1473.144531,212.189346 1474.274780,203.417130
	C1465.666626,211.701477 1455.682739,213.233337 1445.706543,213.840088
	C1438.003906,214.308563 1430.179321,213.680618 1422.469116,212.925751
	C1408.037598,211.512848 1393.506348,210.432175 1379.276001,207.806747
	C1355.406372,203.402908 1331.743286,197.870270 1308.899902,189.406754
	C1301.771973,186.765839 1294.738037,183.871628 1288.424072,181.392929
	C1306.570190,153.582275 1324.445190,126.567772 1341.915649,99.294182
	C1356.480957,76.555946 1370.909058,53.813484 1390.520020,34.850582
	C1401.369263,24.359880 1413.181641,16.190199 1428.682373,14.455216
	C1425.417847,13.785594 1422.148682,12.804659 1419.003906,13.108781
	C1408.236084,14.150120 1398.496338,18.376812 1389.458252,24.111095
	C1376.250244,32.491009 1364.656616,42.788368 1354.693481,54.846832
	C1346.295410,65.011299 1337.884888,75.178574 1329.878662,85.649559
	C1323.705322,93.723228 1318.150513,102.269844 1311.587402,111.654655
	C1313.694824,98.121231 1314.113892,85.878754 1309.388062,74.561798
	C1323.049316,65.162605 1336.423340,56.155788 1349.587036,46.851196
	C1363.671875,36.895332 1377.025513,25.868633 1392.858521,18.566025
	C1405.585083,12.696141 1418.576782,9.141102 1432.608765,13.032472
	C1436.847412,14.207930 1441.015137,15.639102 1445.215332,16.953154
	C1438.036865,11.389616 1429.546753,8.999804 1421.001953,9.279450
	C1412.552246,9.555988 1403.944580,11.345979 1395.816406,13.819962
	C1377.210449,19.483059 1361.027466,30.187889 1344.456543,40.019234
	C1331.597290,47.648396 1318.657959,55.142487 1305.744751,62.680363
	C1303.699951,63.873989 1302.165649,63.739216 1299.642334,62.588352
	C1294.657471,60.314796 1288.476685,57.420311 1283.701904,58.569672
	C1271.879395,61.415596 1270.953247,64.868279 1272.379272,76.490929
	C1276.464478,66.052147 1280.888306,64.445206 1288.960083,70.605881
	C1288.262207,71.089912 1287.661865,71.697029 1286.935425,71.981400
	C1276.657593,76.004280 1266.595581,80.826836 1256.010498,83.751122
	C1243.854736,87.109337 1231.328247,87.765266 1218.999512,83.080124
	C1207.128906,78.569092 1199.814209,64.944984 1202.230225,54.859348
	C1206.110718,38.661362 1215.410767,26.311087 1230.660522,18.691206
	C1240.618530,13.715463 1250.883667,10.086654 1262.091064,10.006891
	C1275.239624,9.913311 1288.445068,9.445717 1301.521729,10.470680
	C1310.746826,11.193760 1319.798462,14.132617 1329.024170,16.362631
	C1329.660522,16.683447 1330.200195,16.723848 1330.739868,16.764256
	C1330.424805,16.324659 1330.109741,15.885054 1329.571777,15.177519
	C1322.523682,8.259157 1313.779053,5.554153 1304.965576,2.941105
	C1304.187012,2.710253 1303.649536,1.666295 1303.000000,0.999997
	C1398.000000,1.000000 1493.000000,1.000000 1588.000000,1.000000
	C1588.000000,14.774708 1588.000000,28.423470 1587.718994,42.821960
	C1576.244507,32.542221 1561.932861,28.031147 1546.024902,23.737238
	C1547.525024,25.620832 1548.195679,26.624767 1549.024536,27.474442
	C1551.813599,30.333452 1554.740601,33.061329 1557.464233,35.979805
	C1562.079102,40.924896 1562.348877,44.374592 1558.762695,49.733402
	C1549.984741,62.850510 1541.146118,75.927605 1532.454956,89.101875
	C1528.777344,94.676735 1525.408081,100.455086 1521.714966,106.438774
	C1515.119019,96.612679 1510.048828,87.039154 1510.479858,75.352859
	C1509.287354,80.807281 1507.339722,86.481743 1508.329468,91.586800
	C1509.731323,98.818138 1513.330566,105.618011 1515.908325,112.632515
	C1516.303345,113.707466 1516.741089,115.156952 1516.339111,116.073936
	C1512.439941,124.971390 1508.365601,133.792160 1504.830444,141.559967
	C1503.215210,137.220535 1501.326538,132.146561 1499.336426,126.800171
	C1497.829468,133.559357 1497.239624,139.734238 1495.042114,145.270935
	C1491.340454,154.597366 1484.027588,161.306122 1476.180054,167.286789
	C1465.361938,175.531296 1454.434692,183.632523 1443.406006,191.570251
	C1443.144409,191.206070 1443.031128,191.066757 1442.959229,190.550598
	C1448.872070,178.400253 1454.524902,166.511307 1460.665405,154.879761
	C1470.352905,136.529755 1481.921753,119.419975 1495.676392,103.835617
	C1502.740601,95.831680 1501.934326,86.696274 1493.144897,80.730377
	C1487.329590,76.783043 1481.250122,73.072136 1474.883057,70.135056
	C1468.991577,67.417374 1462.560547,65.869827 1456.367065,63.806950
	C1456.157471,64.203346 1455.947876,64.599739 1455.738159,64.996132
	C1456.948975,66.283134 1458.253784,67.495056 1459.353394,68.870796
	C1463.232666,73.723717 1467.434448,78.382118 1470.761719,83.594444
	C1473.805176,88.362389 1471.678589,93.737358 1467.286011,96.366035
	C1464.627686,92.794373 1462.511475,88.768524 1459.339355,85.917160
	C1450.840698,78.277946 1440.496826,78.425163 1430.070801,80.449509
	C1420.328491,82.341125 1412.427979,87.883858 1403.923828,95.095947
	C1402.557739,87.931793 1401.372070,81.713188 1400.186279,75.494583
	C1399.220459,81.488853 1399.144287,87.636047 1398.982788,93.781006
	C1398.901978,96.859734 1399.828857,100.769218 1398.315063,102.878105
	C1386.664185,119.108681 1382.546387,137.644363 1381.123535,156.975723
	C1380.668091,163.163483 1381.557373,169.466476 1382.024048,175.702316
	C1382.844238,186.658524 1386.516724,196.666885 1391.510254,204.728745
	C1407.088135,194.393433 1422.554077,184.132492 1437.722900,174.068665
	C1437.019897,184.124207 1436.275391,194.773956 1435.526978,205.479965
	C1438.253662,202.697174 1440.185425,199.747223 1442.908813,198.131470
	C1450.772461,193.465988 1458.889526,189.210785 1467.028198,185.029892
	C1478.265869,179.257019 1488.858521,172.644119 1497.593994,163.429749
	C1497.855591,163.793930 1497.968872,163.933243 1498.043945,164.500214
	C1497.500732,168.281143 1496.874146,171.621414 1496.512939,174.990128
	C1495.425537,185.132675 1494.441528,195.286301 1493.416992,205.435593
	C1493.935547,205.565704 1494.453979,205.695816 1494.972412,205.825928
	C1496.437134,202.634628 1497.901733,199.443314 1499.383179,196.215469
	C1506.738525,202.707336 1511.685303,205.415283 1517.942139,205.978958
	C1536.669067,207.666153 1551.394897,199.944519 1562.639771,185.641754
	C1575.410889,169.397751 1580.618408,150.051224 1581.722412,129.888153
	C1582.295044,119.428085 1580.819580,108.638321 1578.680298,98.327179
	C1577.351929,91.924446 1573.046753,86.139336 1569.872803,79.902077
	C1569.522339,79.622017 1569.376831,79.516899 1569.456543,79.148338
	C1574.662720,72.887321 1579.614380,66.865173 1584.649902,60.914009
	C1585.594849,59.797329 1586.874756,58.964088 1588.000000,58.000015
	C1588.000000,160.635040 1588.000000,263.270081 1588.000000,366.000000
	C1227.975952,366.000000 867.951843,366.000000 507.170593,365.680359
	C506.876923,364.921051 507.279236,364.380463 507.813080,364.056946
	C515.898254,359.157990 524.749329,355.186615 531.930786,349.208008
	C543.913269,339.232513 553.423828,326.776611 561.988281,313.735291
	C569.411499,302.431641 576.480347,290.895233 583.903015,279.591156
	C584.750610,278.300262 586.876099,277.103790 588.396301,277.119263
	C598.815857,277.225311 609.257202,277.322845 619.642944,278.085510
	C632.993896,279.065948 646.388367,280.094238 659.600708,282.151184
	C674.740173,284.508148 689.492371,288.660370 702.081421,298.042114
	C710.747192,304.500092 716.095154,313.078918 715.902405,324.128357
	C715.747620,333.003204 711.463501,339.701019 704.355591,345.390015
	C690.724731,356.299744 675.450623,359.427002 659.096497,355.319672
	C648.977173,352.778168 639.004883,348.692657 629.774658,343.781586
	C613.721436,335.240173 599.760864,323.647247 587.110168,310.558807
	C585.325806,308.712677 583.799927,306.616638 582.154419,304.636261
	C586.419800,320.546967 596.384155,331.912231 609.373413,340.849640
	C631.318298,355.949188 655.315491,363.078094 682.031372,358.976654
	C701.681763,355.959839 716.229370,343.524323 720.697998,323.368439
	C725.451538,301.927673 719.968140,288.301849 700.340576,278.335419
	C684.122131,270.100098 666.022949,267.855103 648.055542,267.165680
	C628.883057,266.430054 609.660583,267.000000 590.757812,267.000000
	C593.488403,260.000000 593.497864,259.754456 601.398865,260.058624
	C612.744019,260.495300 624.067444,261.695709 635.411865,261.891479
	C645.652954,262.068146 655.938599,261.693420 666.150085,260.879272
	C673.540466,260.290039 681.046204,259.292358 688.145020,257.244690
	C710.271057,250.862350 725.430664,236.017059 735.975769,216.028000
	C737.935059,212.313858 739.624634,208.457428 741.977844,203.540131
	C735.962952,208.392914 731.434631,212.748947 726.233643,216.042786
	C721.141357,219.267715 715.501709,221.763504 709.862976,223.966675
	C686.593628,233.058472 662.119141,235.648224 637.427795,237.048264
	C631.573242,237.380219 625.766663,238.527100 619.912537,238.906921
	C615.004333,239.225403 610.059082,238.972321 605.212830,238.972321
	C608.147217,232.932632 611.198425,226.597687 614.296753,220.285858
	C622.518616,203.536530 630.867004,186.848373 638.969482,170.041611
	C650.336792,146.462601 660.768311,122.382736 675.267822,100.471176
	C678.628052,95.393181 679.238892,89.249130 674.659363,84.629265
	C669.981812,79.910522 663.774780,76.355331 657.672302,73.496902
	C651.034180,70.387512 643.745789,68.666229 636.740906,66.339729
	C636.661438,66.666275 636.581909,66.992821 636.502380,67.319366
	C641.827881,73.448097 647.153320,79.576836 651.982849,85.134850
	C648.750427,90.995308 646.071106,95.852982 643.215942,101.029556
	C642.654175,91.928421 638.473816,85.666054 630.440796,82.154251
	C620.915833,77.990196 611.105835,78.001183 601.711792,81.934700
	C594.464661,84.969269 587.760437,89.300377 579.731384,93.640709
	C578.950745,87.643745 578.163635,81.597488 577.376526,75.551231
	C576.149780,78.499893 574.736328,81.692574 575.150208,84.627541
	C576.663757,95.360252 574.296021,104.711571 568.229858,113.779678
	C564.828186,118.864761 563.426392,125.287720 561.008972,131.397522
	C559.946716,129.768036 559.166199,128.570847 558.971130,128.271606
	C557.812622,133.298599 557.218079,139.039551 555.156189,144.193436
	C550.267639,156.412750 539.793091,163.977295 530.049866,171.920151
	C521.136169,179.186798 511.738708,185.860168 502.406036,192.570175
	C502.144379,192.206070 502.031097,192.066757 501.958771,191.555237
	C503.842682,187.104767 505.511749,182.936707 507.562256,178.965607
	C513.015991,168.403702 517.999390,157.524536 524.341187,147.513580
	C533.054321,133.759445 542.855347,120.695099 552.168945,107.320358
	C554.817200,103.517357 558.651917,99.978340 559.708252,95.758873
	C561.355530,89.179550 558.304504,83.658195 552.316162,79.711639
	C541.459839,72.556892 530.022217,66.989677 516.975952,64.637451
	C516.339661,64.316605 515.800049,64.276138 515.260376,64.235672
	C515.575256,64.675240 515.890137,65.114807 516.420898,65.817001
	C519.218262,68.677361 521.875671,71.204521 524.367554,73.885590
	C533.018188,83.192924 533.479858,88.483994 526.836426,97.315811
	C524.913086,94.107880 523.431702,90.252693 520.798279,87.499329
	C512.254578,78.566475 501.297302,78.263603 490.149170,80.444054
	C480.104523,82.408676 471.597290,87.563065 464.359253,95.009384
	C463.200165,91.893608 461.883636,89.134781 461.149536,86.228828
	C459.260986,78.752937 464.958252,68.000534 473.960114,69.958130
	C480.930542,71.473961 487.983032,72.612297 494.376984,73.802635
	C490.600952,68.852684 486.314606,63.233746 481.499390,56.921528
	C482.806549,60.627010 483.877777,63.663719 484.789124,66.247070
	C480.357056,64.820663 475.946564,63.466454 471.592987,61.948925
	C470.641327,61.617195 469.230865,60.763206 469.165283,60.046101
	C468.881134,56.938080 469.750519,53.553474 468.828857,50.714756
	C467.430115,46.406761 465.876251,41.303288 462.658234,38.588566
	C452.533508,30.047394 439.754333,27.222294 426.862457,24.062323
	C427.146484,24.981205 427.141968,25.649298 427.446442,25.851021
	C433.873810,30.109383 438.385223,36.012360 441.939148,42.717499
	C442.415955,43.617043 442.973480,45.097916 442.575073,45.737019
	C439.763855,50.246712 436.712341,54.606621 433.537170,59.311230
	C429.308868,53.154404 423.507355,51.573811 417.010803,53.611862
	C410.289917,55.720306 407.580048,61.355427 406.489471,68.900467
	C400.413727,67.120728 394.724426,65.454178 389.035126,63.787632
	C392.959015,67.165588 397.147675,70.574211 401.940277,72.175735
	C406.801819,73.800308 409.677094,76.711067 412.011810,80.812561
	C412.639404,81.915123 413.782440,82.726494 414.397095,83.833542
	C414.939545,84.810478 415.694336,86.370834 415.295471,87.061531
	C410.875488,94.715805 406.040192,102.133820 401.720520,109.841751
	C392.087494,127.030785 384.759766,145.158783 381.062653,164.576660
	C379.364807,173.493912 378.110535,182.513840 377.105286,191.537354
	C376.574829,196.298935 377.011475,201.168259 377.011475,206.639267
	C379.600403,203.594604 381.114899,201.041321 383.313141,199.408569
	C386.644104,196.934479 390.412689,195.032333 394.062408,193.008011
	C403.755737,187.631592 413.753265,182.744522 423.106689,176.834854
	C429.470367,172.814133 434.952118,167.397507 440.983948,162.478119
	C440.528778,178.082840 443.361115,192.766388 451.222321,204.807388
	C467.101715,194.103241 482.638245,183.630249 497.611542,173.536911
	C496.734253,183.442245 495.759247,194.450745 494.792938,205.360901
	C497.358002,202.920593 499.348053,200.406769 501.892761,198.739594
	C506.725159,195.573578 511.847961,192.843719 516.899109,190.020386
	C525.450806,185.240479 534.242188,180.851685 542.541565,175.671631
	C547.830505,172.370514 552.413940,167.939056 557.876587,163.563522
	C557.718445,179.159790 560.232483,193.473618 569.071838,206.416214
	C570.919495,201.828568 601.907593,180.276505 610.367432,177.536713
	C608.162964,182.506897 606.070923,187.156784 604.032898,191.830215
	C597.181030,207.542679 590.449951,223.309555 583.370361,238.918518
	C582.553406,240.719635 579.997314,242.467392 577.976685,242.865616
	C566.399353,245.147232 554.526978,246.212357 543.166138,249.236221
	C530.714111,252.550552 518.708557,257.542206 504.738068,262.421204
	C500.301636,258.714020 494.325256,253.720047 488.348907,248.726074
	C487.988953,249.121796 487.628998,249.517517 487.269012,249.913254
	C492.583435,255.002396 497.897827,260.091553 502.936462,264.916626
	C498.836456,268.306549 493.217804,271.568665 489.525604,276.326019
	C483.855988,283.631073 478.468689,291.516754 474.842773,299.963562
	C469.096741,313.349335 467.550171,327.497345 472.941742,341.687103
	C474.075165,344.670074 475.570007,347.679352 475.878754,350.778107
	C476.526367,357.277863 479.613678,361.564545 485.549286,364.053833
	C486.191925,364.323334 486.523926,365.333435 487.000000,366.000000
M1002.257568,192.345459
	C1002.144287,192.206131 1002.031006,192.066818 1001.994263,191.161240
	C1002.300964,190.259003 1002.495850,189.298538 1002.930969,188.463196
	C1010.585632,173.769180 1017.556396,158.656509 1026.149658,144.531372
	C1034.603394,130.635376 1043.789795,116.952324 1054.379761,104.662102
	C1062.924805,94.744934 1059.259766,84.680550 1051.111694,79.167427
	C1044.648560,74.794342 1037.462524,71.352043 1030.278320,68.231209
	C1025.571655,66.186623 1020.295837,65.452179 1015.274902,64.130943
	C1021.797241,70.986443 1028.646362,77.009850 1030.962524,86.312950
	C1031.318237,87.741714 1031.141968,89.618874 1030.492798,90.933762
	C1022.543579,107.033401 1013.228516,122.591446 1006.793396,139.264755
	C1001.456665,153.092087 999.045166,168.129898 996.182190,182.796265
	C994.742981,190.169052 995.182251,197.908539 994.892761,203.254059
	C996.478516,202.207993 998.900940,200.399780 1001.511780,198.925125
	C1011.595215,193.229843 1021.759583,187.677856 1031.854248,182.002197
	C1041.918701,176.343430 1051.877686,170.509689 1058.713989,160.774628
	C1065.704712,150.819763 1066.071655,136.953018 1057.942383,127.516212
	C1057.718140,130.864731 1058.008667,134.721741 1057.125977,138.288406
	C1053.333618,153.612473 1041.409912,162.656876 1030.057373,171.922363
	C1021.146667,179.194901 1011.740356,185.860123 1002.257568,192.345459
M798.956238,195.597549
	C800.602722,199.086716 802.249207,202.575867 803.526733,205.283203
	C806.757751,202.572296 809.238037,199.836288 812.278992,198.060379
	C822.133301,192.305542 832.250122,187.002396 842.157776,181.336227
	C851.753967,175.848175 860.940918,169.911331 867.800964,160.827347
	C874.840210,151.506042 874.797607,136.637375 867.074036,127.629662
	C868.032288,141.262848 863.158630,150.112213 853.617676,158.638626
	C842.832703,168.276825 831.126343,176.879745 819.901855,186.032440
	C814.917969,190.096375 810.133423,194.404694 804.243225,199.476151
	C805.242920,188.503021 805.215271,178.511108 807.237793,168.952988
	C810.493713,153.565689 815.321472,138.538193 824.002380,125.129616
	C831.970581,112.821945 841.094910,101.617302 854.704163,95.106949
	C859.127563,92.990913 863.973633,91.090477 868.338135,94.991478
	C872.844727,99.019333 873.752991,104.311508 872.465210,110.141739
	C871.783691,113.227104 871.494690,116.399170 870.922485,120.244972
	C882.300110,111.190971 884.965210,99.237175 883.673828,87.102066
	C881.968994,71.081558 883.677612,56.687473 894.312073,44.094418
	C878.924927,53.958447 871.924744,68.251282 873.002319,86.960548
	C865.047119,80.769249 856.825317,79.021805 847.331360,79.817635
	C832.196350,81.086334 821.027710,88.586067 812.069092,99.969666
	C804.476135,109.618027 799.612854,120.727859 796.638306,132.866684
	C795.378784,130.674545 794.255371,128.719315 792.504944,125.672783
	C792.705078,130.079849 793.405762,133.163940 792.868103,136.014435
	C791.337769,144.127487 787.497803,151.444473 781.435608,156.844376
	C771.105652,166.045731 760.060303,174.441589 749.366577,183.238022
	C743.240784,188.276962 737.215759,193.438431 730.978271,198.685364
	C731.429504,195.092850 731.546326,191.647049 732.324890,188.357910
	C739.158752,159.487762 754.868408,135.530624 773.998108,113.482689
	C778.791443,107.958130 783.497498,102.357849 788.580017,96.397934
	C771.617004,90.148499 763.342957,78.247459 762.916626,60.485039
	C761.978149,67.144463 762.320923,73.670357 761.846619,80.136299
	C761.572327,83.875099 765.192261,86.898064 762.574097,91.120071
	C755.799316,102.044708 749.564392,113.305382 743.177856,124.468460
	C741.730225,126.998787 740.542297,129.677704 739.043823,132.669754
	C737.668091,130.332977 736.719727,128.722046 735.771362,127.111099
	C735.479553,127.220093 735.187805,127.329086 734.896057,127.438072
	C735.243591,129.390213 735.591125,131.342361 735.928833,133.238876
	C732.047363,136.064621 728.201172,138.864700 724.431030,141.609390
	C723.937378,137.426849 724.529785,132.847931 722.771729,129.505280
	C718.850098,122.049095 721.866516,116.909996 726.695557,111.820663
	C728.185486,110.250427 729.774353,108.774467 731.277588,107.216354
	C740.179749,97.988953 740.022644,91.571983 730.807495,82.390640
	C722.900940,74.513130 712.452698,71.349411 702.180054,68.029778
	C699.375305,67.123428 696.457458,66.567085 693.591553,65.850121
	C693.289612,66.388176 692.987671,66.926224 692.685791,67.464272
	C695.527405,69.738480 698.369019,72.012688 701.112488,74.208305
	C700.148132,75.388176 699.283569,75.963448 699.165039,76.664764
	C697.828247,84.577904 696.493164,92.564850 699.797668,100.296112
	C701.218323,103.619720 700.361267,106.354813 698.985962,109.315414
	C693.926392,120.207169 688.025146,130.829315 684.221436,142.151199
	C679.836121,155.203888 676.854126,168.795853 674.208069,182.338333
	C672.738342,189.860306 673.195618,197.758789 672.797241,205.246216
	C675.508545,202.701294 677.675354,200.153152 680.327454,198.299149
	C684.268188,195.544250 688.502441,193.191971 692.699768,190.824402
	C704.483826,184.177368 716.312988,177.610214 728.356750,170.881699
	C725.787231,182.539124 727.102783,194.143509 729.535583,203.686523
	C731.102356,202.686096 733.190430,201.233994 735.386963,199.970673
	C745.841064,193.958252 756.247559,187.856750 766.820312,182.059296
	C776.447266,176.780502 785.289246,170.543747 792.662842,162.751755
	C793.099731,168.126862 793.144043,173.748566 794.117493,179.204498
	C795.070496,184.545914 796.970154,189.718430 798.956238,195.597549
M365.988953,172.518585
	C370.014191,168.480911 374.574646,164.843369 377.953857,160.322784
	C385.120209,150.735962 385.019623,137.174469 376.772125,127.273415
	C378.608582,140.581390 372.719421,150.626556 363.619873,158.659149
	C352.771942,168.235107 341.105072,176.879211 329.882721,186.037003
	C324.903473,190.100235 320.144287,194.433167 314.734375,199.121017
	C315.722076,193.594086 316.307526,188.766373 317.471191,184.082321
	C321.872894,166.364273 330.166016,150.379837 340.885986,135.816910
	C350.910339,122.199005 361.910736,109.299591 371.931213,96.771988
	C367.941406,94.253777 363.409271,91.818069 359.354004,88.751732
	C348.485046,80.533279 347.956604,68.076424 347.143677,56.141338
	C346.437012,45.766685 342.501984,37.672695 332.942505,33.653687
	C324.423431,30.072083 315.379517,27.695358 306.476868,25.096403
	C303.827850,24.323080 300.873749,24.594980 298.639679,24.430647
	C303.964752,29.654087 309.303192,34.764488 314.446411,40.064270
	C315.268951,40.911861 315.900269,42.943092 315.452942,43.853851
	C313.409882,48.013214 310.950684,51.968197 308.624695,56.025127
	C301.978210,50.788864 292.604065,51.863468 287.810455,58.855495
	C283.045746,65.805397 282.999329,76.196220 294.088074,84.740730
	C291.819794,88.634949 289.559143,92.516006 287.298492,96.397072
	C286.680542,96.321213 286.062592,96.245361 285.444641,96.169502
	C283.951508,89.302994 282.458374,82.436485 281.187561,76.592476
	C277.436615,84.730492 279.394104,93.956665 281.982361,103.215385
	C282.422302,104.789062 282.833099,106.819504 282.221863,108.170395
	C274.477692,125.286415 268.515015,142.781754 266.816315,161.737442
	C265.493713,176.496216 265.833557,191.007904 268.559662,205.583755
	C271.244385,177.247833 281.949036,151.751892 295.417297,126.450012
	C297.466858,131.016037 299.610229,134.801300 300.863617,138.861298
	C302.121765,142.936615 302.492828,147.285751 303.379608,152.221375
	C307.893646,141.532883 311.946625,138.238571 322.064911,135.331757
	C320.009308,141.028015 317.672791,146.458817 316.115814,152.104584
	C314.492401,157.991089 313.219879,164.039536 312.534332,170.100937
	C311.867523,175.996765 311.893066,182.005905 312.067841,187.951965
	C312.240997,193.842850 312.979950,199.717102 313.315155,203.734222
	C315.325012,202.475906 317.448669,201.069244 319.643738,199.784485
	C334.905609,190.851639 350.182251,181.944107 365.988953,172.518585
M886.002258,150.707413
	C885.334839,163.204025 884.366272,175.695068 884.134705,188.199768
	C884.028442,193.931671 885.370667,199.690430 886.055969,205.437027
	C889.029907,181.788437 903.751770,139.031723 914.340271,126.354912
	C917.004578,135.099213 919.486694,143.245377 921.810547,150.872406
	C927.354980,140.506973 932.116638,136.386871 939.893250,135.586960
	C926.558594,169.052490 928.432861,193.323166 931.917908,203.710846
	C933.397339,202.690689 935.512756,201.000717 937.834778,199.671753
	C946.486816,194.719894 955.235901,189.937851 963.893860,184.996170
	C975.567566,178.333176 987.437622,172.050522 995.801147,160.838028
	C1002.785645,151.474396 1002.795959,136.618759 995.912842,128.608765
	C994.807922,133.341568 994.098877,139.022934 992.133118,144.229813
	C988.411438,154.087814 980.488098,161.000504 972.752991,167.453476
	C959.932129,178.149338 946.272583,187.839920 933.145630,197.817703
	C933.381165,195.764252 933.508728,192.942322 934.050049,190.202133
	C938.317505,168.601608 948.379883,149.629150 961.420288,132.246582
	C970.693481,119.885643 980.842407,108.181595 990.554138,96.241425
	C974.667786,90.638115 966.233704,79.563667 965.928040,62.374439
	C965.853455,58.183765 965.221313,53.933167 964.277405,49.841171
	C961.676941,38.567856 953.193542,33.136192 943.042969,30.075098
	C934.290283,27.435537 925.292053,25.609844 916.402405,23.424341
	C916.221008,23.942390 916.039551,24.460438 915.858154,24.978485
	C916.268066,25.319002 916.691406,25.644722 917.085876,26.002268
	C922.239136,30.673935 927.457886,35.277779 932.469543,40.096897
	C933.296692,40.892193 933.884094,42.965538 933.433167,43.884384
	C931.398315,48.031036 928.950134,51.974846 926.632263,56.024334
	C920.000793,50.839737 911.299011,51.776398 906.110596,58.520447
	C901.298218,64.775627 900.490784,75.826523 911.951355,84.681061
	C909.784973,88.712379 907.618591,92.743690 905.452209,96.775009
	C904.957947,96.880714 904.463623,96.986420 903.969360,97.092125
	C902.269104,89.965744 900.568848,82.839355 898.868652,75.712975
	C898.026367,82.417336 896.776917,89.548820 898.362915,95.981133
	C900.095703,103.008423 900.214233,108.713943 897.277283,115.605812
	C892.588074,126.609726 889.688416,138.376266 886.002258,150.707413
M1045.956909,25.476879
	C1040.674438,35.790100 1040.061768,48.437286 1030.034912,56.397522
	C1040.773804,61.251202 1054.170654,54.317863 1056.087769,41.916122
	C1057.990601,29.606926 1060.353149,17.368778 1062.514038,5.099475
	C1058.684204,7.112051 1055.204590,9.678810 1052.692749,12.981529
	C1049.997559,16.525537 1048.211914,20.761354 1045.956909,25.476879
M482.054260,238.576660
	C483.559143,241.941360 485.064056,245.306061 486.568939,248.670761
	C487.143066,248.371231 487.717194,248.071686 488.291351,247.772141
	C486.409485,244.530975 484.527618,241.289810 482.054260,238.576660
M1447.105469,17.019594
	C1445.626465,18.993267 1445.758789,19.147179 1450.527954,20.470131
	C1449.409302,19.156630 1448.617188,18.226458 1447.105469,17.019594
z"/>
<path fill="#FFFFFF" opacity="1.000000" stroke="none"
	d="
M502.554413,192.794968
	C511.738708,185.860168 521.136169,179.186798 530.049866,171.920151
	C539.793091,163.977295 550.267639,156.412750 555.156189,144.193436
	C557.218079,139.039551 557.812622,133.298599 558.971130,128.271606
	C559.166199,128.570847 559.946716,129.768036 561.008972,131.397522
	C563.426392,125.287720 564.828186,118.864761 568.229858,113.779678
	C574.296021,104.711571 576.663757,95.360252 575.150208,84.627541
	C574.736328,81.692574 576.149780,78.499893 577.376526,75.551231
	C578.163635,81.597488 578.950745,87.643745 579.731384,93.640709
	C587.760437,89.300377 594.464661,84.969269 601.711792,81.934700
	C611.105835,78.001183 620.915833,77.990196 630.440796,82.154251
	C638.473816,85.666054 642.654175,91.928421 643.215942,101.029556
	C646.071106,95.852982 648.750427,90.995308 651.982849,85.134850
	C647.153320,79.576836 641.827881,73.448097 636.502380,67.319366
	C636.581909,66.992821 636.661438,66.666275 636.740906,66.339729
	C643.745789,68.666229 651.034180,70.387512 657.672302,73.496902
	C663.774780,76.355331 669.981812,79.910522 674.659363,84.629265
	C679.238892,89.249130 678.628052,95.393181 675.267822,100.471176
	C660.768311,122.382736 650.336792,146.462601 638.969482,170.041611
	C630.867004,186.848373 622.518616,203.536530 614.296753,220.285858
	C611.198425,226.597687 608.147217,232.932632 605.212830,238.972321
	C610.059082,238.972321 615.004333,239.225403 619.912537,238.906921
	C625.766663,238.527100 631.573242,237.380219 637.427795,237.048264
	C662.119141,235.648224 686.593628,233.058472 709.862976,223.966675
	C715.501709,221.763504 721.141357,219.267715 726.233643,216.042786
	C731.434631,212.748947 735.962952,208.392914 741.977844,203.540131
	C739.624634,208.457428 737.935059,212.313858 735.975769,216.028000
	C725.430664,236.017059 710.271057,250.862350 688.145020,257.244690
	C681.046204,259.292358 673.540466,260.290039 666.150085,260.879272
	C655.938599,261.693420 645.652954,262.068146 635.411865,261.891479
	C624.067444,261.695709 612.744019,260.495300 601.398865,260.058624
	C593.497864,259.754456 593.488403,260.000000 590.757812,267.000000
	C609.660583,267.000000 628.883057,266.430054 648.055542,267.165680
	C666.022949,267.855103 684.122131,270.100098 700.340576,278.335419
	C719.968140,288.301849 725.451538,301.927673 720.697998,323.368439
	C716.229370,343.524323 701.681763,355.959839 682.031372,358.976654
	C655.315491,363.078094 631.318298,355.949188 609.373413,340.849640
	C596.384155,331.912231 586.419800,320.546967 582.154419,304.636261
	C583.799927,306.616638 585.325806,308.712677 587.110168,310.558807
	C599.760864,323.647247 613.721436,335.240173 629.774658,343.781586
	C639.004883,348.692657 648.977173,352.778168 659.096497,355.319672
	C675.450623,359.427002 690.724731,356.299744 704.355591,345.390015
	C711.463501,339.701019 715.747620,333.003204 715.902405,324.128357
	C716.095154,313.078918 710.747192,304.500092 702.081421,298.042114
	C689.492371,288.660370 674.740173,284.508148 659.600708,282.151184
	C646.388367,280.094238 632.993896,279.065948 619.642944,278.085510
	C609.257202,277.322845 598.815857,277.225311 588.396301,277.119263
	C586.876099,277.103790 584.750610,278.300262 583.903015,279.591156
	C576.480347,290.895233 569.411499,302.431641 561.988281,313.735291
	C553.423828,326.776611 543.913269,339.232513 531.930786,349.208008
	C524.749329,355.186615 515.898254,359.157990 507.813080,364.056946
	C507.279236,364.380463 506.876923,364.921051 506.706726,365.680359
	C500.645599,366.000000 494.291199,366.000000 487.468384,366.000000
	C486.523926,365.333435 486.191925,364.323334 485.549286,364.053833
	C479.613678,361.564545 476.526367,357.277863 475.878754,350.778107
	C475.570007,347.679352 474.075165,344.670074 472.941742,341.687103
	C467.550171,327.497345 469.096741,313.349335 474.842773,299.963562
	C478.468689,291.516754 483.855988,283.631073 489.525604,276.326019
	C493.217804,271.568665 498.836456,268.306549 502.936462,264.916626
	C497.897827,260.091553 492.583435,255.002396 487.269012,249.913254
	C487.628998,249.517517 487.988953,249.121796 488.348907,248.726074
	C494.325256,253.720047 500.301636,258.714020 504.738068,262.421204
	C518.708557,257.542206 530.714111,252.550552 543.166138,249.236221
	C554.526978,246.212357 566.399353,245.147232 577.976685,242.865616
	C579.997314,242.467392 582.553406,240.719635 583.370361,238.918518
	C590.449951,223.309555 597.181030,207.542679 604.032898,191.830215
	C606.070923,187.156784 608.162964,182.506897 610.367432,177.536713
	C601.907593,180.276505 570.919495,201.828568 569.071838,206.416214
	C560.232483,193.473618 557.718445,179.159790 557.876587,163.563522
	C552.413940,167.939056 547.830505,172.370514 542.541565,175.671631
	C534.242188,180.851685 525.450806,185.240479 516.899109,190.020386
	C511.847961,192.843719 506.725159,195.573578 501.892761,198.739594
	C499.348053,200.406769 497.358002,202.920593 494.792938,205.360901
	C495.759247,194.450745 496.734253,183.442245 497.611542,173.536911
	C482.638245,183.630249 467.101715,194.103241 451.222321,204.807388
	C443.361115,192.766388 440.528778,178.082840 440.983948,162.478119
	C434.952118,167.397507 429.470367,172.814133 423.106689,176.834854
	C413.753265,182.744522 403.755737,187.631592 394.062408,193.008011
	C390.412689,195.032333 386.644104,196.934479 383.313141,199.408569
	C381.114899,201.041321 379.600403,203.594604 377.011475,206.639267
	C377.011475,201.168259 376.574829,196.298935 377.105286,191.537354
	C378.110535,182.513840 379.364807,173.493912 381.062653,164.576660
	C384.759766,145.158783 392.087494,127.030785 401.720520,109.841751
	C406.040192,102.133820 410.875488,94.715805 415.295471,87.061531
	C415.694336,86.370834 414.939545,84.810478 414.397095,83.833542
	C413.782440,82.726494 412.639404,81.915123 412.011810,80.812561
	C409.677094,76.711067 406.801819,73.800308 401.940277,72.175735
	C397.147675,70.574211 392.959015,67.165588 389.035126,63.787632
	C394.724426,65.454178 400.413727,67.120728 406.489471,68.900467
	C407.580048,61.355427 410.289917,55.720306 417.010803,53.611862
	C423.507355,51.573811 429.308868,53.154404 433.537170,59.311230
	C436.712341,54.606621 439.763855,50.246712 442.575073,45.737019
	C442.973480,45.097916 442.415955,43.617043 441.939148,42.717499
	C438.385223,36.012360 433.873810,30.109383 427.446442,25.851021
	C427.141968,25.649298 427.146484,24.981205 426.862457,24.062323
	C439.754333,27.222294 452.533508,30.047394 462.658234,38.588566
	C465.876251,41.303288 467.430115,46.406761 468.828857,50.714756
	C469.750519,53.553474 468.881134,56.938080 469.165283,60.046101
	C469.230865,60.763206 470.641327,61.617195 471.592987,61.948925
	C475.946564,63.466454 480.357056,64.820663 484.789124,66.247070
	C483.877777,63.663719 482.806549,60.627010 481.499390,56.921528
	C486.314606,63.233746 490.600952,68.852684 494.376984,73.802635
	C487.983032,72.612297 480.930542,71.473961 473.960114,69.958130
	C464.958252,68.000534 459.260986,78.752937 461.149536,86.228828
	C461.883636,89.134781 463.200165,91.893608 464.359253,95.009384
	C471.597290,87.563065 480.104523,82.408676 490.149170,80.444054
	C501.297302,78.263603 512.254578,78.566475 520.798279,87.499329
	C523.431702,90.252693 524.913086,94.107880 526.836426,97.315811
	C533.479858,88.483994 533.018188,83.192924 524.367554,73.885590
	C521.875671,71.204521 519.218262,68.677361 516.645691,65.668625
	C516.793945,65.144371 516.933228,65.031105 517.072571,64.917839
	C530.022217,66.989677 541.459839,72.556892 552.316162,79.711639
	C558.304504,83.658195 561.355530,89.179550 559.708252,95.758873
	C558.651917,99.978340 554.817200,103.517357 552.168945,107.320358
	C542.855347,120.695099 533.054321,133.759445 524.341187,147.513580
	C517.999390,157.524536 513.015991,168.403702 507.562256,178.965607
	C505.511749,182.936707 503.842682,187.104767 501.678375,191.651871
	C501.316589,192.660385 501.276123,193.200043 501.235687,193.739716
	C501.675262,193.424805 502.114838,193.109879 502.554413,192.794968
M459.075470,71.994217
	C457.114105,72.096519 454.317322,71.405914 453.336700,72.439087
	C449.201782,76.795517 445.608398,81.665970 441.816925,86.348404
	C450.605927,84.840828 456.195679,79.373978 461.221130,72.197182
	C461.352844,71.861855 461.484528,71.526535 461.616241,71.191216
	C461.052551,71.434181 460.488892,71.677139 459.075470,71.994217
M606.052429,138.458939
	C611.217834,135.251312 616.333496,131.959854 621.559875,128.854843
	C630.328003,123.645592 637.338318,117.276039 636.983276,105.991600
	C636.621094,94.478218 631.250488,90.268280 621.217590,94.083534
	C610.411743,98.192680 602.469788,106.118156 595.512085,115.071854
	C595.051453,115.664658 595.013489,117.088058 595.404236,117.763321
	C599.676819,125.147354 601.972229,133.010849 600.951538,141.658020
	C602.989197,140.580872 604.495239,139.784790 606.576843,139.558350
	C603.729736,143.517883 600.882690,147.477417 598.084961,151.368240
	C598.306885,141.476349 594.750854,132.811417 589.000671,124.309776
	C575.233521,147.731201 568.818604,172.135132 570.117310,199.154465
	C571.897705,197.112427 573.055664,195.360825 574.603149,194.079803
	C583.255432,186.917328 592.263672,180.162659 600.644836,172.700821
	C609.598022,164.729630 615.449341,154.787308 616.259399,141.400406
	C618.082703,145.428604 619.401733,148.342880 621.152649,152.211105
	C624.781616,143.503143 627.929138,135.950546 631.295166,127.873627
	C623.434998,131.586929 616.330200,134.973373 609.189880,138.283325
	C608.155212,138.762970 606.950439,138.875793 606.052429,138.458939
M385.093964,192.344666
	C397.134369,183.322495 409.699463,174.908646 421.065704,165.104843
	C432.146088,155.547577 442.106110,144.623154 440.067291,127.976799
	C440.051147,127.845146 440.419830,127.666374 440.679688,127.450844
	C441.831818,129.388519 442.953125,131.274368 444.317383,133.568848
	C447.370605,121.638443 451.856628,111.091515 458.789795,101.656189
	C459.288239,100.977898 459.734589,99.971825 459.635468,99.190422
	C458.930573,93.633995 458.077271,88.096390 457.297882,82.736298
	C453.905426,84.646240 450.338837,88.055946 446.385742,88.586670
	C438.266632,89.676712 434.833191,95.419472 431.000031,101.117210
	C417.699585,120.887367 406.052765,141.607010 396.040131,163.215683
	C391.675110,172.636032 387.939362,182.347961 383.357025,192.120712
	C383.316589,192.660385 383.276154,193.200043 383.235687,193.739716
	C383.675262,193.424789 384.114838,193.109863 385.093964,192.344666
M560.499390,286.999786
	C562.264587,283.421295 564.029785,279.842773 565.956848,275.936157
	C549.264832,276.421082 533.190796,275.556580 517.630127,270.308685
	C516.761414,270.015747 515.513062,270.557068 514.530090,270.938629
	C499.725067,276.685425 487.580170,285.835815 479.786926,299.828949
	C471.729248,314.296967 469.536011,329.169739 477.880981,344.633881
	C483.348236,354.765259 494.030457,359.709106 503.341797,357.805267
	C512.771729,355.877136 520.486633,350.687500 526.209595,343.153107
	C539.375183,325.820343 550.366089,307.107422 560.499390,286.999786
M456.442139,196.039124
	C463.415131,190.099396 470.302429,184.055313 477.380768,178.243881
	C488.589661,169.041138 498.782043,159.264389 499.319153,142.410217
	C500.956207,145.104782 502.080841,146.955917 503.371399,149.080109
	C505.573761,142.845093 507.628174,137.028961 509.944061,130.472580
	C502.190186,133.979370 495.165009,137.156586 488.139862,140.333801
	C488.884338,138.763733 490.057800,137.781815 491.345764,136.984940
	C496.686066,133.680771 501.980774,130.290924 507.441528,127.196014
	C516.252075,122.202576 519.748840,113.941780 519.793884,104.678520
	C519.846252,93.893005 513.110962,90.785271 503.571533,94.766243
	C492.498657,99.387131 485.139740,107.926971 477.972137,116.585991
	C482.446259,124.820045 486.085815,132.897430 484.155426,142.360626
	C485.108429,141.836655 485.993561,141.349991 488.065186,140.210999
	C485.538330,144.924881 483.670532,148.409225 481.802765,151.893585
	C482.206329,141.184998 476.925903,132.846176 472.474335,124.053543
	C458.431641,147.052933 452.279022,171.892166 453.081879,199.782700
	C454.613464,198.070404 455.279022,197.326279 456.442139,196.039124
M558.127625,270.968170
	C560.703308,270.645416 563.308472,270.465973 565.843201,269.944153
	C567.273987,269.649597 569.145996,269.162079 569.843628,268.112823
	C571.447266,265.700836 572.453796,262.891815 573.886841,259.853577
	C555.843201,260.300903 538.732483,262.352753 522.218140,267.882019
	C522.260437,268.469879 522.302734,269.057739 522.345032,269.645599
	C533.958435,270.096313 545.571899,270.547058 558.127625,270.968170
M424.420380,67.004196
	C428.809845,66.664322 429.936798,65.683350 431.384430,60.942238
	C422.955872,57.884396 417.115479,60.453575 414.145203,68.632233
	C417.330017,68.097702 420.452148,67.573692 424.420380,67.004196
M418.390015,76.000000
	C417.050934,76.000000 415.711884,76.000000 413.660919,76.000000
	C415.373566,78.626305 416.587891,80.488403 418.262939,83.057076
	C419.776672,80.178062 420.791718,78.247475 421.973389,76.000038
	C420.787781,76.000038 419.992249,76.000038 418.390015,76.000000
z"/>
<path fill="#FFFFFF" opacity="1.000000" stroke="none"
	d="
M1302.531372,0.999997
	C1303.649536,1.666295 1304.187012,2.710253 1304.965576,2.941105
	C1313.779053,5.554153 1322.523682,8.259157 1329.347168,15.325958
	C1329.205933,15.855629 1329.066650,15.968929 1328.927490,16.082222
	C1319.798462,14.132617 1310.746826,11.193760 1301.521729,10.470680
	C1288.445068,9.445717 1275.239624,9.913311 1262.091064,10.006891
	C1250.883667,10.086654 1240.618530,13.715463 1230.660522,18.691206
	C1215.410767,26.311087 1206.110718,38.661362 1202.230225,54.859348
	C1199.814209,64.944984 1207.128906,78.569092 1218.999512,83.080124
	C1231.328247,87.765266 1243.854736,87.109337 1256.010498,83.751122
	C1266.595581,80.826836 1276.657593,76.004280 1286.935425,71.981400
	C1287.661865,71.697029 1288.262207,71.089912 1288.960083,70.605881
	C1280.888306,64.445206 1276.464478,66.052147 1272.379272,76.490929
	C1270.953247,64.868279 1271.879395,61.415596 1283.701904,58.569672
	C1288.476685,57.420311 1294.657471,60.314796 1299.642334,62.588352
	C1302.165649,63.739216 1303.699951,63.873989 1305.744751,62.680363
	C1318.657959,55.142487 1331.597290,47.648396 1344.456543,40.019234
	C1361.027466,30.187889 1377.210449,19.483059 1395.816406,13.819962
	C1403.944580,11.345979 1412.552246,9.555988 1421.001953,9.279450
	C1429.546753,8.999804 1438.036865,11.389616 1445.215332,16.953154
	C1441.015137,15.639102 1436.847412,14.207930 1432.608765,13.032472
	C1418.576782,9.141102 1405.585083,12.696141 1392.858521,18.566025
	C1377.025513,25.868633 1363.671875,36.895332 1349.587036,46.851196
	C1336.423340,56.155788 1323.049316,65.162605 1309.388062,74.561798
	C1314.113892,85.878754 1313.694824,98.121231 1311.587402,111.654655
	C1318.150513,102.269844 1323.705322,93.723228 1329.878662,85.649559
	C1337.884888,75.178574 1346.295410,65.011299 1354.693481,54.846832
	C1364.656616,42.788368 1376.250244,32.491009 1389.458252,24.111095
	C1398.496338,18.376812 1408.236084,14.150120 1419.003906,13.108781
	C1422.148682,12.804659 1425.417847,13.785594 1428.682373,14.455216
	C1413.181641,16.190199 1401.369263,24.359880 1390.520020,34.850582
	C1370.909058,53.813484 1356.480957,76.555946 1341.915649,99.294182
	C1324.445190,126.567772 1306.570190,153.582275 1288.424072,181.392929
	C1294.738037,183.871628 1301.771973,186.765839 1308.899902,189.406754
	C1331.743286,197.870270 1355.406372,203.402908 1379.276001,207.806747
	C1393.506348,210.432175 1408.037598,211.512848 1422.469116,212.925751
	C1430.179321,213.680618 1438.003906,214.308563 1445.706543,213.840088
	C1455.682739,213.233337 1465.666626,211.701477 1474.274780,203.417130
	C1473.144531,212.189346 1470.881836,219.382172 1465.969238,225.416901
	C1457.967285,235.246780 1447.499756,239.990982 1434.775635,241.146469
	C1417.397217,242.724609 1400.763428,239.443558 1384.737793,233.811691
	C1363.302368,226.278641 1342.245483,217.620041 1321.241333,208.924881
	C1307.325684,203.164169 1293.787476,196.492050 1278.970581,189.720779
	C1274.981201,193.963181 1270.872681,199.005875 1266.089600,203.296692
	C1249.691284,218.007462 1231.083862,227.781693 1208.334106,226.958389
	C1188.172974,226.228729 1170.207886,213.007828 1165.951660,191.323120
	C1162.826294,175.400787 1167.073364,161.827682 1178.259277,150.294128
	C1179.487183,149.028015 1181.031738,148.052032 1182.492798,147.032257
	C1188.130859,143.097275 1190.316040,137.391785 1188.567139,131.036850
	C1186.149414,122.251511 1180.683472,115.862190 1174.193237,116.279503
	C1170.410400,116.522736 1166.806030,119.541260 1162.696045,121.322601
	C1162.153076,121.198540 1162.035400,121.062981 1161.917847,120.927422
	C1165.666992,112.800301 1178.269775,110.896927 1185.852295,117.307144
	C1193.370850,123.663338 1193.974487,131.928223 1192.583252,140.494598
	C1198.455811,139.662125 1204.361938,137.910400 1210.172363,138.184723
	C1223.785767,138.827454 1235.656372,143.949570 1243.804932,155.418213
	C1249.609131,163.587219 1250.246338,172.693970 1246.675781,182.614044
	C1246.316528,183.660324 1246.276123,184.199951 1246.235596,184.739594
	C1246.675171,184.424774 1247.114624,184.109955 1247.554199,183.795105
	C1251.773682,180.130890 1255.993286,176.466705 1260.297119,172.729401
	C1256.401367,166.697769 1252.245361,161.319824 1249.227051,155.365143
	C1243.333618,143.737991 1245.139038,129.303528 1253.678223,121.679382
	C1261.299927,114.874519 1270.310059,114.448265 1278.945190,116.801506
	C1289.807251,119.761650 1291.319580,131.049332 1287.070068,143.535507
	C1283.600708,153.729019 1277.224121,162.011948 1269.781982,169.912552
	C1271.157471,171.775726 1272.069336,173.260468 1274.257324,170.436249
	C1287.582764,153.237244 1297.177124,134.514038 1300.139893,112.583199
	C1301.566040,102.026978 1301.278687,91.946053 1297.317871,81.594276
	C1294.656372,82.799080 1292.085327,83.717552 1289.756836,85.057449
	C1276.328857,92.784096 1262.283325,99.370361 1246.979858,101.730186
	C1235.335938,103.525703 1223.348999,102.768669 1213.440430,94.754570
	C1206.780762,89.368172 1202.758545,81.833870 1201.205811,73.780251
	C1197.171875,52.856697 1201.186279,36.165531 1219.792603,21.471666
	C1232.017700,11.817174 1245.646362,6.112579 1260.628784,2.949924
	C1261.341309,2.799521 1261.942017,2.119643 1262.297363,1.343166
	C1275.354248,1.000000 1288.708496,1.000000 1302.531372,0.999997
M1187.894531,158.005722
	C1191.684326,159.064972 1195.473999,160.124207 1199.263794,161.183456
	C1199.204834,161.704803 1199.145874,162.226151 1199.086914,162.747513
	C1189.966187,162.657654 1183.982056,167.930466 1179.879639,174.916534
	C1177.038086,179.755508 1174.252686,185.657410 1174.421997,190.989700
	C1174.667725,198.725952 1178.270020,206.022888 1183.071045,212.522308
	C1189.320557,220.982544 1203.818359,226.480286 1213.697632,223.724091
	C1225.945435,220.307098 1236.422241,213.718704 1245.372803,204.952744
	C1253.441162,197.050751 1260.818604,188.443237 1268.125488,180.552094
	C1266.604004,178.532135 1265.618042,177.223053 1264.621948,175.900726
	C1259.120361,180.352875 1254.095337,184.766068 1248.716797,188.695267
	C1239.328857,195.553345 1229.437500,201.172150 1217.077148,200.050446
	C1211.678345,199.560516 1204.976440,196.642258 1203.284302,193.455109
	C1216.403198,200.192810 1227.424927,195.312439 1235.075317,187.446671
	C1246.615356,175.581497 1242.592163,155.708771 1230.957275,148.405411
	C1225.267456,144.833878 1219.356934,144.316574 1212.634644,144.758530
	C1201.850098,145.467621 1193.526367,150.074997 1185.778564,157.803192
	C1185.647095,158.138474 1185.515503,158.473755 1185.384033,158.809052
	C1185.947632,158.565994 1186.511230,158.322937 1187.894531,158.005722
M1276.972656,147.280838
	C1277.978394,144.416000 1279.038452,141.568863 1279.978394,138.682587
	C1281.860962,132.901901 1280.757935,127.206741 1276.506348,124.145844
	C1271.357788,120.439270 1265.600342,118.087692 1259.284668,121.300346
	C1249.988892,126.028847 1244.816040,139.601608 1250.206177,149.836639
	C1253.608154,156.296310 1259.214966,161.594681 1264.293579,167.994370
	C1268.847656,160.554520 1272.704834,154.253448 1276.972656,147.280838
z"/>
<path fill="#FFFFFF" opacity="1.000000" stroke="none"
	d="
M1588.000000,57.533897
	C1586.874756,58.964088 1585.594849,59.797329 1584.649902,60.914009
	C1579.614380,66.865173 1574.662720,72.887321 1569.203125,79.368378
	C1559.135132,93.751274 1549.727173,107.780998 1539.875122,121.491623
	C1535.370239,127.760971 1533.336792,134.118561 1535.528076,141.650238
	C1537.144531,140.375336 1538.562500,139.021164 1540.193481,138.010818
	C1547.827026,133.281769 1555.620728,128.801559 1563.115967,123.866104
	C1564.889282,122.698456 1566.352539,120.275627 1566.898560,118.157036
	C1570.117432,105.668808 1570.203125,92.872108 1570.077637,80.077042
	C1573.046753,86.139336 1577.351929,91.924446 1578.680298,98.327179
	C1580.819580,108.638321 1582.295044,119.428085 1581.722412,129.888153
	C1580.618408,150.051224 1575.410889,169.397751 1562.639771,185.641754
	C1551.394897,199.944519 1536.669067,207.666153 1517.942139,205.978958
	C1511.685303,205.415283 1506.738525,202.707336 1499.383179,196.215469
	C1497.901733,199.443314 1496.437134,202.634628 1494.972412,205.825928
	C1494.453979,205.695816 1493.935547,205.565704 1493.416992,205.435593
	C1494.441528,195.286301 1495.425537,185.132675 1496.512939,174.990128
	C1496.874146,171.621414 1497.500732,168.281143 1498.324463,164.403595
	C1498.683472,163.339676 1498.723877,162.800049 1498.764404,162.260406
	C1498.324829,162.575256 1497.885376,162.890076 1497.445801,163.204895
	C1488.858521,172.644119 1478.265869,179.257019 1467.028198,185.029892
	C1458.889526,189.210785 1450.772461,193.465988 1442.908813,198.131470
	C1440.185425,199.747223 1438.253662,202.697174 1435.526978,205.479965
	C1436.275391,194.773956 1437.019897,184.124207 1437.722900,174.068665
	C1422.554077,184.132492 1407.088135,194.393433 1391.510254,204.728745
	C1386.516724,196.666885 1382.844238,186.658524 1382.024048,175.702316
	C1381.557373,169.466476 1380.668091,163.163483 1381.123535,156.975723
	C1382.546387,137.644363 1386.664185,119.108681 1398.315063,102.878105
	C1399.828857,100.769218 1398.901978,96.859734 1398.982788,93.781006
	C1399.144287,87.636047 1399.220459,81.488853 1400.186279,75.494583
	C1401.372070,81.713188 1402.557739,87.931793 1403.923828,95.095947
	C1412.427979,87.883858 1420.328491,82.341125 1430.070801,80.449509
	C1440.496826,78.425163 1450.840698,78.277946 1459.339355,85.917160
	C1462.511475,88.768524 1464.627686,92.794373 1467.286011,96.366035
	C1471.678589,93.737358 1473.805176,88.362389 1470.761719,83.594444
	C1467.434448,78.382118 1463.232666,73.723717 1459.353394,68.870796
	C1458.253784,67.495056 1456.948975,66.283134 1455.738159,64.996132
	C1455.947876,64.599739 1456.157471,64.203346 1456.367065,63.806950
	C1462.560547,65.869827 1468.991577,67.417374 1474.883057,70.135056
	C1481.250122,73.072136 1487.329590,76.783043 1493.144897,80.730377
	C1501.934326,86.696274 1502.740601,95.831680 1495.676392,103.835617
	C1481.921753,119.419975 1470.352905,136.529755 1460.665405,154.879761
	C1454.524902,166.511307 1448.872070,178.400253 1442.678711,190.647217
	C1442.316528,191.660324 1442.276001,192.199951 1442.235596,192.739578
	C1442.675049,192.424744 1443.114624,192.109909 1443.554199,191.795090
	C1454.434692,183.632523 1465.361938,175.531296 1476.180054,167.286789
	C1484.027588,161.306122 1491.340454,154.597366 1495.042114,145.270935
	C1497.239624,139.734238 1497.829468,133.559357 1499.336426,126.800171
	C1501.326538,132.146561 1503.215210,137.220535 1504.830444,141.559967
	C1508.365601,133.792160 1512.439941,124.971390 1516.339111,116.073936
	C1516.741089,115.156952 1516.303345,113.707466 1515.908325,112.632515
	C1513.330566,105.618011 1509.731323,98.818138 1508.329468,91.586800
	C1507.339722,86.481743 1509.287354,80.807281 1510.479858,75.352859
	C1510.048828,87.039154 1515.119019,96.612679 1521.714966,106.438774
	C1525.408081,100.455086 1528.777344,94.676735 1532.454956,89.101875
	C1541.146118,75.927605 1549.984741,62.850510 1558.762695,49.733402
	C1562.348877,44.374592 1562.079102,40.924896 1557.464233,35.979805
	C1554.740601,33.061329 1551.813599,30.333452 1549.024536,27.474442
	C1548.195679,26.624767 1547.525024,25.620832 1546.024902,23.737238
	C1561.932861,28.031147 1576.244507,32.542221 1587.718994,43.285843
	C1588.000000,47.689255 1588.000000,52.378513 1588.000000,57.533897
M1426.395996,141.540268
	C1429.970947,138.828232 1433.305420,135.694931 1437.169556,133.489380
	C1445.965088,128.468933 1454.989746,124.231049 1458.524170,113.283035
	C1460.240601,107.966286 1460.575928,103.050697 1458.853271,98.138611
	C1457.501953,94.285202 1453.966064,92.397438 1449.778198,93.075241
	C1447.130005,93.503868 1444.442871,94.331589 1442.039185,95.518898
	C1432.189209,100.384163 1424.621948,107.904602 1418.238525,116.569489
	C1422.186768,123.754242 1425.554443,130.997620 1425.102173,139.461090
	C1425.059204,140.262421 1426.431030,141.139359 1427.007324,142.716476
	C1425.441162,145.628784 1423.875122,148.541092 1422.881470,150.388687
	C1420.226562,142.412628 1417.265869,133.518356 1414.305298,124.624077
	C1413.680420,124.715820 1413.055664,124.807564 1412.430908,124.899300
	C1398.390869,147.776932 1392.967041,172.892380 1392.986694,200.481552
	C1394.899292,198.141266 1395.911621,196.427963 1397.349487,195.221924
	C1405.460083,188.418503 1413.825073,181.911942 1421.810791,174.967880
	C1430.993530,166.983093 1439.285889,158.320786 1439.034668,144.847214
	C1439.022827,144.205444 1439.471924,143.555099 1440.033081,142.008194
	C1441.506226,145.143433 1442.571045,147.409622 1443.573242,149.542542
	C1445.680176,143.595963 1447.840332,137.498947 1450.243896,130.714874
	C1448.990967,131.169785 1448.426758,131.313416 1447.918335,131.568558
	C1440.951782,135.065552 1433.992798,138.577911 1426.395996,141.540268
M1553.718018,133.032150
	C1545.073608,137.561600 1535.214966,140.700897 1531.703857,151.883286
	C1531.133179,147.698151 1530.562622,143.513000 1529.940308,138.948624
	C1529.116455,139.593491 1528.591187,139.808655 1528.385010,140.194382
	C1520.809814,154.362671 1513.169067,168.497925 1505.827881,182.786896
	C1504.845825,184.698395 1504.403320,188.640900 1505.446533,189.476669
	C1507.668701,191.257141 1511.303955,192.885254 1513.878296,192.332275
	C1524.349609,190.083191 1532.042358,183.412079 1539.149048,175.552689
	C1550.648438,162.835297 1558.485474,148.271439 1563.452637,132.013474
	C1563.732422,131.097748 1563.698486,130.086166 1563.854614,128.738586
	C1560.327393,130.345779 1557.414917,131.672852 1553.718018,133.032150
z"/>
<path fill="#FFFFFF" opacity="1.000000" stroke="none"
	d="
M0.999999,81.468658
	C1.666071,80.522270 2.726400,80.178482 2.940830,79.547318
	C9.053673,61.554310 23.010836,51.288235 39.354786,44.232079
	C49.101017,40.024349 59.632820,36.819592 70.116135,35.375320
	C79.769180,34.045433 89.850677,35.376644 99.704636,36.079651
	C109.642296,36.788624 118.673210,40.538727 126.949150,46.026173
	C128.756226,47.224380 130.315903,48.795719 131.565186,50.590324
	C119.753777,47.250137 108.170143,44.861145 96.152641,43.820892
	C78.869347,42.324833 61.719379,41.958954 45.032513,47.121151
	C28.580069,52.210827 14.635232,61.019497 7.222893,77.480667
	C0.316655,92.817902 0.890508,102.472870 13.110638,113.383614
	C22.239134,121.533997 34.235104,121.406357 45.277374,119.555565
	C56.725471,117.636742 67.905823,113.680145 78.929802,109.831490
	C85.881950,107.404388 92.318024,104.481369 96.246628,96.615791
	C100.950455,87.198128 107.671211,78.651009 114.349121,70.399086
	C119.784927,63.682030 126.444618,57.955402 132.561584,51.789577
	C147.323593,40.092377 163.279358,30.631411 181.653458,25.763987
	C202.349686,20.281414 222.491333,21.107294 240.168381,34.198410
	C253.307724,43.929031 262.182678,57.330372 264.921143,73.783943
	C270.697784,108.491753 261.012390,139.437347 240.266037,167.087692
	C228.747833,182.438919 214.438339,194.958878 195.401184,199.947113
	C183.677322,203.019073 174.220871,210.395157 163.122910,214.512375
	C150.013199,219.375961 136.914581,222.241730 122.719536,220.201782
	C112.345131,218.710922 103.559608,215.169952 96.126305,207.723923
	C88.446808,200.031281 84.992828,190.332352 83.189667,180.182159
	C81.620575,171.349609 80.882469,162.200745 81.216263,153.245300
	C81.564178,143.910995 83.646461,134.642563 84.933350,125.340202
	C85.067886,124.367683 84.951431,123.360428 84.951431,123.119446
	C73.682655,126.909828 62.491741,131.324341 50.941715,134.382599
	C38.508995,137.674561 26.172573,137.162750 15.142636,129.043152
	C8.686866,124.290802 5.622618,117.479263 2.967040,110.321342
	C2.706244,109.618385 2.094011,109.045807 1.322450,108.706360
	C1.000000,99.979103 1.000000,90.958214 0.999999,81.468658
M143.797424,75.001839
	C158.597946,66.994774 173.224762,58.641472 188.258057,51.098331
	C198.867096,45.775120 210.413895,42.103954 222.356430,43.254917
	C231.370941,44.123692 240.161743,47.313408 250.173767,49.742214
	C245.485245,45.736969 241.603775,41.369770 236.814713,38.536842
	C224.797440,31.428135 212.141159,33.754799 199.748245,37.727329
	C177.381088,44.897087 158.731323,58.006023 141.778870,74.802834
	C141.647171,75.138161 141.515488,75.473488 141.383789,75.808807
	C141.947464,75.565842 142.511124,75.322868 143.797424,75.001839
M254.045456,109.593163
	C254.357010,109.021599 254.820190,108.484169 254.957703,107.873421
	C257.591583,96.174057 259.754456,84.250381 256.760162,72.490891
	C255.072800,65.864182 256.430420,58.053482 248.193329,53.262077
	C236.521194,46.472576 224.509918,43.609196 211.605194,46.320694
	C198.153275,49.147171 185.813736,55.198364 174.544571,63.054630
	C159.031113,73.869804 143.766129,85.041954 128.419998,96.096298
	C123.580315,99.582489 117.324104,102.229340 114.337875,106.926926
	C108.110939,116.722382 102.772873,127.301758 98.637344,138.156342
	C92.494026,154.280838 88.260849,170.988388 93.013931,188.490936
	C95.054794,196.006088 98.050888,202.857971 104.317314,208.092606
	C115.649490,217.558945 128.598160,217.409378 141.792679,214.553619
	C160.790543,210.441849 175.621338,198.850281 189.371887,185.972336
	C203.482254,172.757416 215.459320,157.615372 225.327393,141.009338
	C232.934753,128.207642 240.943542,115.477829 244.645721,100.761406
	C246.756042,92.372681 248.272903,83.946091 244.996750,75.468277
	C242.859299,69.937096 239.632156,64.913315 233.460693,64.180740
	C226.756287,63.384903 219.578979,62.703571 213.138245,64.222031
	C184.414185,70.993973 163.842926,87.860710 153.096771,115.771011
	C150.542694,122.404549 149.388992,129.158386 153.927597,135.714355
	C160.198257,144.772232 172.271240,149.201492 179.901108,139.341476
	C181.960831,136.679703 182.505569,132.845596 183.892776,129.158707
	C184.506104,136.745865 182.829712,143.418472 175.905731,146.373489
	C165.264694,150.914841 156.091278,147.774384 149.227509,138.022293
	C148.832153,138.260178 148.436798,138.498077 148.041443,138.735962
	C149.609924,147.434250 151.178406,156.132523 152.754135,164.870911
	C152.576218,164.861343 151.399338,165.011765 150.353912,164.708740
	C140.151871,161.751465 134.315079,153.060532 133.993591,140.594528
	C133.621582,126.169174 138.102417,113.191284 146.136124,101.453392
	C154.747314,88.871773 165.738571,78.752998 179.146484,71.354607
	C194.706726,62.768581 210.923462,56.513363 229.071503,60.122944
	C239.011993,62.100071 246.344681,67.708534 250.138046,77.857124
	C254.613037,89.829216 252.940414,101.471970 249.932800,113.212349
	C248.506516,118.779869 246.721146,124.255386 245.098465,129.772583
	C245.618164,129.951523 246.137848,130.130463 246.657547,130.309387
	C249.105408,123.682648 251.553284,117.055901 254.045456,109.593163
z"/>
<path fill="#FFFFFF" opacity="1.000000" stroke="none"
	d="
M798.705261,195.281311
	C796.970154,189.718430 795.070496,184.545914 794.117493,179.204498
	C793.144043,173.748566 793.099731,168.126862 792.662842,162.751755
	C785.289246,170.543747 776.447266,176.780502 766.820312,182.059296
	C756.247559,187.856750 745.841064,193.958252 735.386963,199.970673
	C733.190430,201.233994 731.102356,202.686096 729.535583,203.686523
	C727.102783,194.143509 725.787231,182.539124 728.356750,170.881699
	C716.312988,177.610214 704.483826,184.177368 692.699768,190.824402
	C688.502441,193.191971 684.268188,195.544250 680.327454,198.299149
	C677.675354,200.153152 675.508545,202.701294 672.797241,205.246216
	C673.195618,197.758789 672.738342,189.860306 674.208069,182.338333
	C676.854126,168.795853 679.836121,155.203888 684.221436,142.151199
	C688.025146,130.829315 693.926392,120.207169 698.985962,109.315414
	C700.361267,106.354813 701.218323,103.619720 699.797668,100.296112
	C696.493164,92.564850 697.828247,84.577904 699.165039,76.664764
	C699.283569,75.963448 700.148132,75.388176 701.112488,74.208305
	C698.369019,72.012688 695.527405,69.738480 692.685791,67.464272
	C692.987671,66.926224 693.289612,66.388176 693.591553,65.850121
	C696.457458,66.567085 699.375305,67.123428 702.180054,68.029778
	C712.452698,71.349411 722.900940,74.513130 730.807495,82.390640
	C740.022644,91.571983 740.179749,97.988953 731.277588,107.216354
	C729.774353,108.774467 728.185486,110.250427 726.695557,111.820663
	C721.866516,116.909996 718.850098,122.049095 722.771729,129.505280
	C724.529785,132.847931 723.937378,137.426849 724.431030,141.609390
	C728.201172,138.864700 732.047363,136.064621 735.928833,133.238876
	C735.591125,131.342361 735.243591,129.390213 734.896057,127.438072
	C735.187805,127.329086 735.479553,127.220093 735.771362,127.111099
	C736.719727,128.722046 737.668091,130.332977 739.043823,132.669754
	C740.542297,129.677704 741.730225,126.998787 743.177856,124.468460
	C749.564392,113.305382 755.799316,102.044708 762.574097,91.120071
	C765.192261,86.898064 761.572327,83.875099 761.846619,80.136299
	C762.320923,73.670357 761.978149,67.144463 762.916626,60.485039
	C763.342957,78.247459 771.617004,90.148499 788.580017,96.397934
	C783.497498,102.357849 778.791443,107.958130 773.998108,113.482689
	C754.868408,135.530624 739.158752,159.487762 732.324890,188.357910
	C731.546326,191.647049 731.429504,195.092850 730.978271,198.685364
	C737.215759,193.438431 743.240784,188.276962 749.366577,183.238022
	C760.060303,174.441589 771.105652,166.045731 781.435608,156.844376
	C787.497803,151.444473 791.337769,144.127487 792.868103,136.014435
	C793.405762,133.163940 792.705078,130.079849 792.504944,125.672783
	C794.255371,128.719315 795.378784,130.674545 796.638306,132.866684
	C799.612854,120.727859 804.476135,109.618027 812.069092,99.969666
	C821.027710,88.586067 832.196350,81.086334 847.331360,79.817635
	C856.825317,79.021805 865.047119,80.769249 873.002319,86.960548
	C871.924744,68.251282 878.924927,53.958447 894.312073,44.094418
	C883.677612,56.687473 881.968994,71.081558 883.673828,87.102066
	C884.965210,99.237175 882.300110,111.190971 870.922485,120.244972
	C871.494690,116.399170 871.783691,113.227104 872.465210,110.141739
	C873.752991,104.311508 872.844727,99.019333 868.338135,94.991478
	C863.973633,91.090477 859.127563,92.990913 854.704163,95.106949
	C841.094910,101.617302 831.970581,112.821945 824.002380,125.129616
	C815.321472,138.538193 810.493713,153.565689 807.237793,168.952988
	C805.215271,178.511108 805.242920,188.503021 804.243225,199.476151
	C810.133423,194.404694 814.917969,190.096375 819.901855,186.032440
	C831.126343,176.879745 842.832703,168.276825 853.617676,158.638626
	C863.158630,150.112213 868.032288,141.262848 867.074036,127.629662
	C874.797607,136.637375 874.840210,151.506042 867.800964,160.827347
	C860.940918,169.911331 851.753967,175.848175 842.157776,181.336227
	C832.250122,187.002396 822.133301,192.305542 812.278992,198.060379
	C809.238037,199.836288 806.757751,202.572296 803.526733,205.283203
	C802.249207,202.575867 800.602722,199.086716 798.705261,195.281311
M681.102783,191.349716
	C684.497070,188.891586 688.001709,186.570908 691.265564,183.950333
	C702.428040,174.988022 713.761841,166.211868 724.511780,156.774170
	C730.179443,151.798431 733.404968,144.900192 735.113159,137.532196
	C734.596313,137.141312 734.079407,136.750412 733.562561,136.359528
	C729.263672,141.282501 724.964844,146.205490 721.769104,149.865173
	C719.863220,143.731888 717.528931,136.220093 714.932617,127.865189
	C713.301636,129.371750 712.561401,129.808273 712.168030,130.455551
	C704.751038,142.658539 696.997925,154.679367 690.132019,167.186737
	C686.005371,174.704041 683.275391,182.988037 679.357056,191.120728
	C679.316589,191.660370 679.276062,192.200012 679.235535,192.739624
	C679.675110,192.424789 680.114624,192.109955 681.102783,191.349716
M706.043579,81.493805
	C704.550964,79.336052 703.058411,77.178299 701.347046,74.704308
	C698.745178,83.276115 701.985718,90.045952 704.991943,97.031403
	C711.251282,92.190430 709.717407,87.173988 706.043579,81.493805
z"/>
<path fill="#FFFFFF" opacity="1.000000" stroke="none"
	d="
M365.721558,172.773529
	C350.182251,181.944107 334.905609,190.851639 319.643738,199.784485
	C317.448669,201.069244 315.325012,202.475906 313.315155,203.734222
	C312.979950,199.717102 312.240997,193.842850 312.067841,187.951965
	C311.893066,182.005905 311.867523,175.996765 312.534332,170.100937
	C313.219879,164.039536 314.492401,157.991089 316.115814,152.104584
	C317.672791,146.458817 320.009308,141.028015 322.064911,135.331757
	C311.946625,138.238571 307.893646,141.532883 303.379608,152.221375
	C302.492828,147.285751 302.121765,142.936615 300.863617,138.861298
	C299.610229,134.801300 297.466858,131.016037 295.417297,126.450012
	C281.949036,151.751892 271.244385,177.247833 268.559662,205.583755
	C265.833557,191.007904 265.493713,176.496216 266.816315,161.737442
	C268.515015,142.781754 274.477692,125.286415 282.221863,108.170395
	C282.833099,106.819504 282.422302,104.789062 281.982361,103.215385
	C279.394104,93.956665 277.436615,84.730492 281.187561,76.592476
	C282.458374,82.436485 283.951508,89.302994 285.444641,96.169502
	C286.062592,96.245361 286.680542,96.321213 287.298492,96.397072
	C289.559143,92.516006 291.819794,88.634949 294.088074,84.740730
	C282.999329,76.196220 283.045746,65.805397 287.810455,58.855495
	C292.604065,51.863468 301.978210,50.788864 308.624695,56.025127
	C310.950684,51.968197 313.409882,48.013214 315.452942,43.853851
	C315.900269,42.943092 315.268951,40.911861 314.446411,40.064270
	C309.303192,34.764488 303.964752,29.654087 298.639679,24.430647
	C300.873749,24.594980 303.827850,24.323080 306.476868,25.096403
	C315.379517,27.695358 324.423431,30.072083 332.942505,33.653687
	C342.501984,37.672695 346.437012,45.766685 347.143677,56.141338
	C347.956604,68.076424 348.485046,80.533279 359.354004,88.751732
	C363.409271,91.818069 367.941406,94.253777 371.931213,96.771988
	C361.910736,109.299591 350.910339,122.199005 340.885986,135.816910
	C330.166016,150.379837 321.872894,166.364273 317.471191,184.082321
	C316.307526,188.766373 315.722076,193.594086 314.734375,199.121017
	C320.144287,194.433167 324.903473,190.100235 329.882721,186.037003
	C341.105072,176.879211 352.771942,168.235107 363.619873,158.659149
	C372.719421,150.626556 378.608582,140.581390 376.772125,127.273415
	C385.019623,137.174469 385.120209,150.735962 377.953857,160.322784
	C374.574646,164.843369 370.014191,168.480911 365.721558,172.773529
M320.814087,87.000481
	C336.212311,81.388374 345.833618,65.455635 342.364014,51.722519
	C334.462738,63.570473 326.843567,74.995377 318.778870,86.802818
	C318.647186,87.138145 318.515472,87.473473 318.383759,87.808792
	C318.947449,87.565826 319.511108,87.322861 320.814087,87.000481
M346.570221,89.944252
	C346.909149,89.210136 347.618958,88.426910 347.529297,87.749527
	C346.682953,81.356735 345.700378,74.981979 344.885803,69.472580
	C338.342987,81.540833 332.700684,85.976372 318.164978,90.055374
	C317.293854,90.299828 316.327209,90.967628 315.846741,91.720406
	C311.868652,97.953636 307.994751,104.253380 304.089294,110.532997
	C319.941528,107.041245 335.619263,104.072090 346.570221,89.944252
M310.039185,138.449554
	C315.045837,135.157364 320.939087,132.660858 324.809174,128.348648
	C328.659180,124.058815 330.476807,117.944954 333.150604,112.699615
	C327.527313,113.870331 322.436554,115.074356 317.291168,115.961754
	C311.914795,116.888985 306.485901,117.511513 301.616272,118.192268
	C303.508301,126.123322 305.340515,133.803619 307.267303,141.880417
	C307.914856,141.050034 308.718414,140.019638 310.039185,138.449554
M306.424255,61.042492
	C305.008423,60.485878 303.452637,59.230110 302.198517,59.481205
	C290.153473,61.892792 288.917999,75.616554 295.672119,81.619034
	C299.123016,74.980362 302.576019,68.337616 306.424255,61.042492
z"/>
<path fill="#FFFFFF" opacity="1.000000" stroke="none"
	d="
M886.017212,150.263885
	C889.688416,138.376266 892.588074,126.609726 897.277283,115.605812
	C900.214233,108.713943 900.095703,103.008423 898.362915,95.981133
	C896.776917,89.548820 898.026367,82.417336 898.868652,75.712975
	C900.568848,82.839355 902.269104,89.965744 903.969360,97.092125
	C904.463623,96.986420 904.957947,96.880714 905.452209,96.775009
	C907.618591,92.743690 909.784973,88.712379 911.952271,84.680862
	C900.490784,75.826523 901.298218,64.775627 906.110596,58.520447
	C911.299011,51.776398 920.000793,50.839737 926.632263,56.024334
	C928.950134,51.974846 931.398315,48.031036 933.433167,43.884384
	C933.884094,42.965538 933.296692,40.892193 932.469543,40.096897
	C927.457886,35.277779 922.239136,30.673935 917.085876,26.002268
	C916.691406,25.644722 916.268066,25.319002 915.858154,24.978485
	C916.039551,24.460438 916.221008,23.942390 916.402405,23.424341
	C925.292053,25.609844 934.290283,27.435537 943.042969,30.075098
	C953.193542,33.136192 961.676941,38.567856 964.277405,49.841171
	C965.221313,53.933167 965.853455,58.183765 965.928040,62.374439
	C966.233704,79.563667 974.667786,90.638115 990.554138,96.241425
	C980.842407,108.181595 970.693481,119.885643 961.420288,132.246582
	C948.379883,149.629150 938.317505,168.601608 934.050049,190.202133
	C933.508728,192.942322 933.381165,195.764252 933.145630,197.817703
	C946.272583,187.839920 959.932129,178.149338 972.752991,167.453476
	C980.488098,161.000504 988.411438,154.087814 992.133118,144.229813
	C994.098877,139.022934 994.807922,133.341568 995.912842,128.608765
	C1002.795959,136.618759 1002.785645,151.474396 995.801147,160.838028
	C987.437622,172.050522 975.567566,178.333176 963.893860,184.996170
	C955.235901,189.937851 946.486816,194.719894 937.834778,199.671753
	C935.512756,201.000717 933.397339,202.690689 931.917908,203.710846
	C928.432861,193.323166 926.558594,169.052490 939.893250,135.586960
	C932.116638,136.386871 927.354980,140.506973 921.810547,150.872406
	C919.486694,143.245377 917.004578,135.099213 914.340271,126.354912
	C903.751770,139.031723 889.029907,181.788437 886.055969,205.437027
	C885.370667,199.690430 884.028442,193.931671 884.134705,188.199768
	C884.366272,175.695068 885.334839,163.204025 886.017212,150.263885
M938.814148,87.000473
	C954.212036,81.388580 963.833679,65.455719 960.364014,51.722588
	C952.462769,63.570477 944.843628,74.995369 936.778931,86.802788
	C936.647156,87.138107 936.515442,87.473434 936.383728,87.808777
	C936.947449,87.565811 937.511108,87.322845 938.814148,87.000473
M924.003357,107.495010
	C923.409241,108.563278 922.815063,109.631554 921.866333,111.337395
	C936.194458,108.334518 949.332092,104.311638 960.193970,95.133385
	C962.571228,93.124634 964.921814,90.094063 965.469543,87.191551
	C966.006958,84.343208 963.939026,81.094551 963.556641,77.955521
	C963.177185,74.840988 963.473572,71.644135 963.473572,68.348007
	C956.407288,81.481148 950.824829,85.823486 936.154236,90.098564
	C934.727173,90.514427 933.273987,91.870468 932.462036,93.180115
	C929.670654,97.682373 927.158813,102.357933 924.003357,107.495010
M940.511780,130.993958
	C941.383118,130.158508 942.536621,129.474121 943.078491,128.462234
	C945.860535,123.266670 948.485291,117.986916 951.018982,113.022690
	C940.309814,114.891602 929.702393,116.742760 919.744324,118.480606
	C921.552429,126.200554 923.349915,133.874786 924.917725,140.568481
	C929.534485,137.797104 934.753967,134.663940 940.511780,130.993958
M922.479553,65.015778
	C923.246704,63.465118 924.013916,61.914459 924.780029,60.365879
	C919.559021,57.596863 914.991028,60.589993 911.581665,64.978729
	C908.721741,68.660347 908.649841,77.202377 913.577637,81.673210
	C916.391541,76.334885 919.212708,70.982880 922.479553,65.015778
z"/>
<path fill="#FFFFFF" opacity="1.000000" stroke="none"
	d="
M1002.554199,192.795105
	C1011.740356,185.860123 1021.146667,179.194901 1030.057373,171.922363
	C1041.409912,162.656876 1053.333618,153.612473 1057.125977,138.288406
	C1058.008667,134.721741 1057.718140,130.864731 1057.942383,127.516212
	C1066.071655,136.953018 1065.704712,150.819763 1058.713989,160.774628
	C1051.877686,170.509689 1041.918701,176.343430 1031.854248,182.002197
	C1021.759583,187.677856 1011.595215,193.229843 1001.511780,198.925125
	C998.900940,200.399780 996.478516,202.207993 994.892761,203.254059
	C995.182251,197.908539 994.742981,190.169052 996.182190,182.796265
	C999.045166,168.129898 1001.456665,153.092087 1006.793396,139.264755
	C1013.228516,122.591446 1022.543579,107.033401 1030.492798,90.933762
	C1031.141968,89.618874 1031.318237,87.741714 1030.962524,86.312950
	C1028.646362,77.009850 1021.797241,70.986443 1015.274902,64.130943
	C1020.295837,65.452179 1025.571655,66.186623 1030.278320,68.231209
	C1037.462524,71.352043 1044.648560,74.794342 1051.111694,79.167427
	C1059.259766,84.680550 1062.924805,94.744934 1054.379761,104.662102
	C1043.789795,116.952324 1034.603394,130.635376 1026.149658,144.531372
	C1017.556396,158.656509 1010.585632,173.769180 1002.930969,188.463196
	C1002.495850,189.298538 1002.300964,190.259003 1001.675598,191.640991
	C1001.316467,192.660355 1001.276001,193.199997 1001.235474,193.739624
	C1001.675049,193.424759 1002.114624,193.109924 1002.554199,192.795105
z"/>
<path fill="#FFFFFF" opacity="1.000000" stroke="none"
	d="
M1045.993164,25.086061
	C1048.211914,20.761354 1049.997559,16.525537 1052.692749,12.981529
	C1055.204590,9.678810 1058.684204,7.112051 1062.514038,5.099475
	C1060.353149,17.368778 1057.990601,29.606926 1056.087769,41.916122
	C1054.170654,54.317863 1040.773804,61.251202 1030.034912,56.397522
	C1040.061768,48.437286 1040.674438,35.790100 1045.993164,25.086061
z"/>
<path fill="#FFFFFF" opacity="1.000000" stroke="none"
	d="
M482.350006,238.312653
	C484.527618,241.289810 486.409485,244.530975 488.291351,247.772141
	C487.717194,248.071686 487.143066,248.371231 486.568939,248.670761
	C485.064056,245.306061 483.559143,241.941360 482.350006,238.312653
z"/>
<path fill="#FFFFFF" opacity="1.000000" stroke="none"
	d="
M1447.465210,17.157940
	C1448.617188,18.226458 1449.409302,19.156630 1450.527954,20.470131
	C1445.758789,19.147179 1445.626465,18.993267 1447.465210,17.157940
z"/>
<path fill="#FFFFFF" opacity="1.000000" stroke="none"
	d="
M1162.429810,121.551163
	C1161.984009,122.810913 1161.378906,123.853600 1160.773804,124.896286
	C1160.540649,124.805183 1160.307495,124.714081 1160.074341,124.622978
	C1160.475830,123.481613 1160.877197,122.340248 1161.598267,121.063148
	C1162.035400,121.062981 1162.153076,121.198540 1162.429810,121.551163
z"/>
<path fill="#FFFFFF" opacity="1.000000" stroke="none"
	d="
M1329.570068,15.593887
	C1330.109741,15.885054 1330.424805,16.324659 1330.739868,16.764256
	C1330.200195,16.723848 1329.660522,16.683447 1329.024170,16.362637
	C1329.066650,15.968929 1329.205933,15.855629 1329.570068,15.593887
z"/>
<path fill="#FFFFFF" opacity="1.000000" stroke="none"
	d="
M516.429810,65.406006
	C515.890137,65.114807 515.575256,64.675240 515.260376,64.235672
	C515.800049,64.276138 516.339661,64.316605 516.975952,64.637451
	C516.933228,65.031105 516.793945,65.144371 516.429810,65.406006
z"/>
<path fill="#000000" opacity="1.000000" stroke="none" fill-opacity="0"
	d="
M560.267334,287.308044
	C550.366089,307.107422 539.375183,325.820343 526.209595,343.153107
	C520.486633,350.687500 512.771729,355.877136 503.341797,357.805267
	C494.030457,359.709106 483.348236,354.765259 477.880981,344.633881
	C469.536011,329.169739 471.729248,314.296967 479.786926,299.828949
	C487.580170,285.835815 499.725067,276.685425 514.530090,270.938629
	C515.513062,270.557068 516.761414,270.015747 517.630127,270.308685
	C533.190796,275.556580 549.264832,276.421082 565.956848,275.936157
	C564.029785,279.842773 562.264587,283.421295 560.267334,287.308044
z"/>
<path fill="#000000" opacity="1.000000" stroke="none" fill-opacity="0"
	d="
M456.193359,196.310638
	C455.279022,197.326279 454.613464,198.070404 453.081879,199.782700
	C452.279022,171.892166 458.431641,147.052933 472.474335,124.053543
	C476.925903,132.846176 482.206329,141.184998 481.802765,151.893585
	C483.670532,148.409225 485.538330,144.924881 488.065186,140.210999
	C485.993561,141.349991 485.108429,141.836655 484.155426,142.360626
	C486.085815,132.897430 482.446259,124.820045 477.972137,116.585991
	C485.139740,107.926971 492.498657,99.387131 503.571533,94.766243
	C513.110962,90.785271 519.846252,93.893005 519.793884,104.678520
	C519.748840,113.941780 516.252075,122.202576 507.441528,127.196014
	C501.980774,130.290924 496.686066,133.680771 491.345764,136.984940
	C490.057800,137.781815 488.884338,138.763733 488.139862,140.333801
	C495.165009,137.156586 502.190186,133.979370 509.944061,130.472580
	C507.628174,137.028961 505.573761,142.845093 503.371399,149.080109
	C502.080841,146.955917 500.956207,145.104782 499.319153,142.410217
	C498.782043,159.264389 488.589661,169.041138 477.380768,178.243881
	C470.302429,184.055313 463.415131,190.099396 456.193359,196.310638
z"/>
<path fill="#000000" opacity="1.000000" stroke="none" fill-opacity="0"
	d="
M383.917786,191.927460
	C387.939362,182.347961 391.675110,172.636032 396.040131,163.215683
	C406.052765,141.607010 417.699585,120.887367 431.000031,101.117210
	C434.833191,95.419472 438.266632,89.676712 446.385742,88.586670
	C450.338837,88.055946 453.905426,84.646240 457.297882,82.736298
	C458.077271,88.096390 458.930573,93.633995 459.635468,99.190422
	C459.734589,99.971825 459.288239,100.977898 458.789795,101.656189
	C451.856628,111.091515 447.370605,121.638443 444.317383,133.568848
	C442.953125,131.274368 441.831818,129.388519 440.679688,127.450844
	C440.419830,127.666374 440.051147,127.845146 440.067291,127.976799
	C442.106110,144.623154 432.146088,155.547577 421.065704,165.104843
	C409.699463,174.908646 397.134369,183.322495 384.675812,192.345032
	C384.144379,192.206070 384.031097,192.066757 383.917786,191.927460
z"/>
<path fill="#000000" opacity="1.000000" stroke="none" fill-opacity="0"
	d="
M605.824402,139.158371
	C606.950439,138.875793 608.155212,138.762970 609.189880,138.283325
	C616.330200,134.973373 623.434998,131.586929 631.295166,127.873627
	C627.929138,135.950546 624.781616,143.503143 621.152649,152.211105
	C619.401733,148.342880 618.082703,145.428604 616.259399,141.400406
	C615.449341,154.787308 609.598022,164.729630 600.644836,172.700821
	C592.263672,180.162659 583.255432,186.917328 574.603149,194.079803
	C573.055664,195.360825 571.897705,197.112427 570.117310,199.154465
	C568.818604,172.135132 575.233521,147.731201 589.000671,124.309776
	C594.750854,132.811417 598.306885,141.476349 598.084961,151.368240
	C600.882690,147.477417 603.729736,143.517883 606.245728,139.316910
	C605.914673,139.075470 605.824402,139.158371 605.824402,139.158371
z"/>
<path fill="#000000" opacity="1.000000" stroke="none" fill-opacity="0"
	d="
M605.957947,139.032089
	C604.495239,139.784790 602.989197,140.580872 600.951538,141.658020
	C601.972229,133.010849 599.676819,125.147354 595.404236,117.763321
	C595.013489,117.088058 595.051453,115.664658 595.512085,115.071854
	C602.469788,106.118156 610.411743,98.192680 621.217590,94.083534
	C631.250488,90.268280 636.621094,94.478218 636.983276,105.991600
	C637.338318,117.276039 630.328003,123.645592 621.559875,128.854843
	C616.333496,131.959854 611.217834,135.251312 605.938416,138.808655
	C605.824402,139.158371 605.914673,139.075470 605.957947,139.032089
z"/>
<path fill="#000000" opacity="1.000000" stroke="none" fill-opacity="0"
	d="
M557.656494,270.982971
	C545.571899,270.547058 533.958435,270.096313 522.345032,269.645599
	C522.302734,269.057739 522.260437,268.469879 522.218140,267.882019
	C538.732483,262.352753 555.843201,260.300903 573.886841,259.853577
	C572.453796,262.891815 571.447266,265.700836 569.843628,268.112823
	C569.145996,269.162079 567.273987,269.649597 565.843201,269.944153
	C563.308472,270.465973 560.703308,270.645416 557.656494,270.982971
z"/>
<path fill="#000000" opacity="1.000000" stroke="none" fill-opacity="0"
	d="
M460.775574,72.579704
	C456.195679,79.373978 450.605927,84.840828 441.816925,86.348404
	C445.608398,81.665970 449.201782,76.795517 453.336700,72.439087
	C454.317322,71.405914 457.114105,72.096519 459.705505,72.131653
	C460.482208,72.372620 460.628876,72.476166 460.775574,72.579704
z"/>
<path fill="#000000" opacity="1.000000" stroke="none" fill-opacity="0"
	d="
M423.997314,67.026947
	C420.452148,67.573692 417.330017,68.097702 414.145203,68.632233
	C417.115479,60.453575 422.955872,57.884396 431.384430,60.942238
	C429.936798,65.683350 428.809845,66.664322 423.997314,67.026947
z"/>
<path fill="#000000" opacity="1.000000" stroke="none" fill-opacity="0"
	d="
M418.793365,76.000015
	C419.992249,76.000038 420.787781,76.000038 421.973389,76.000038
	C420.791718,78.247475 419.776672,80.178062 418.262939,83.057076
	C416.587891,80.488403 415.373566,78.626305 413.660919,76.000000
	C415.711884,76.000000 417.050934,76.000000 418.793365,76.000015
z"/>
<path fill="#000000" opacity="1.000000" stroke="none" fill-opacity="0"
	d="
M502.406036,192.570175
	C502.114838,193.109879 501.675262,193.424805 501.235687,193.739716
	C501.276123,193.200043 501.316589,192.660385 501.637421,192.024078
	C502.031097,192.066757 502.144379,192.206070 502.406036,192.570175
z"/>
<path fill="#000000" opacity="1.000000" stroke="none" fill-opacity="0"
	d="
M384.406036,192.570160
	C384.114838,193.109863 383.675262,193.424789 383.235687,193.739716
	C383.276154,193.200043 383.316589,192.660385 383.637421,192.024078
	C384.031097,192.066757 384.144379,192.206070 384.406036,192.570160
z"/>
<path fill="#000000" opacity="1.000000" stroke="none" fill-opacity="0"
	d="
M460.130371,72.094589
	C460.488892,71.677139 461.052551,71.434181 461.616241,71.191208
	C461.484528,71.526535 461.352844,71.861855 460.998352,72.388443
	C460.628876,72.476166 460.482208,72.372620 460.130371,72.094589
z"/>
<path fill="#000000" opacity="1.000000" stroke="none" fill-opacity="0"
	d="
M1186.224121,157.420761
	C1193.526367,150.074997 1201.850098,145.467621 1212.634644,144.758530
	C1219.356934,144.316574 1225.267456,144.833878 1230.957275,148.405411
	C1242.592163,155.708771 1246.615356,175.581497 1235.075317,187.446671
	C1227.424927,195.312439 1216.403198,200.192810 1203.284302,193.455109
	C1204.976440,196.642258 1211.678345,199.560516 1217.077148,200.050446
	C1229.437500,201.172150 1239.328857,195.553345 1248.716797,188.695267
	C1254.095337,184.766068 1259.120361,180.352875 1264.621948,175.900726
	C1265.618042,177.223053 1266.604004,178.532135 1268.125488,180.552094
	C1260.818604,188.443237 1253.441162,197.050751 1245.372803,204.952744
	C1236.422241,213.718704 1225.945435,220.307098 1213.697632,223.724091
	C1203.818359,226.480286 1189.320557,220.982544 1183.071045,212.522308
	C1178.270020,206.022888 1174.667725,198.725952 1174.421997,190.989700
	C1174.252686,185.657410 1177.038086,179.755508 1179.879639,174.916534
	C1183.982056,167.930466 1189.966187,162.657654 1199.086914,162.747513
	C1199.145874,162.226151 1199.204834,161.704803 1199.263794,161.183456
	C1195.473999,160.124207 1191.684326,159.064972 1187.279419,157.868439
	C1186.517578,157.627686 1186.370850,157.524231 1186.224121,157.420761
z"/>
<path fill="#000000" opacity="1.000000" stroke="none" fill-opacity="0"
	d="
M1276.767334,147.616608
	C1272.704834,154.253448 1268.847656,160.554520 1264.293579,167.994370
	C1259.214966,161.594681 1253.608154,156.296310 1250.206177,149.836639
	C1244.816040,139.601608 1249.988892,126.028847 1259.284668,121.300346
	C1265.600342,118.087692 1271.357788,120.439270 1276.506348,124.145844
	C1280.757935,127.206741 1281.860962,132.901901 1279.978394,138.682587
	C1279.038452,141.568863 1277.978394,144.416000 1276.767334,147.616608
z"/>
<path fill="#000000" opacity="1.000000" stroke="none" fill-opacity="0"
	d="
M1247.406006,183.570251
	C1247.114624,184.109955 1246.675171,184.424774 1246.235596,184.739594
	C1246.276123,184.199951 1246.316528,183.660324 1246.637451,183.024048
	C1247.031128,183.066757 1247.144409,183.206070 1247.406006,183.570251
z"/>
<path fill="#000000" opacity="1.000000" stroke="none" fill-opacity="0"
	d="
M1186.869629,157.905518
	C1186.511230,158.322937 1185.947632,158.565994 1185.384033,158.809052
	C1185.515503,158.473755 1185.647095,158.138474 1186.001343,157.611969
	C1186.370850,157.524231 1186.517578,157.627686 1186.869629,157.905518
z"/>
<path fill="#000000" opacity="1.000000" stroke="none" fill-opacity="0"
	d="
M1427.031982,142.086517
	C1433.992798,138.577911 1440.951782,135.065552 1447.918335,131.568558
	C1448.426758,131.313416 1448.990967,131.169785 1450.243896,130.714874
	C1447.840332,137.498947 1445.680176,143.595963 1443.573242,149.542542
	C1442.571045,147.409622 1441.506226,145.143433 1440.033081,142.008194
	C1439.471924,143.555099 1439.022827,144.205444 1439.034668,144.847214
	C1439.285889,158.320786 1430.993530,166.983093 1421.810791,174.967880
	C1413.825073,181.911942 1405.460083,188.418503 1397.349487,195.221924
	C1395.911621,196.427963 1394.899292,198.141266 1392.986694,200.481552
	C1392.967041,172.892380 1398.390869,147.776932 1412.430908,124.899300
	C1413.055664,124.807564 1413.680420,124.715820 1414.305298,124.624077
	C1417.265869,133.518356 1420.226562,142.412628 1422.881470,150.388687
	C1423.875122,148.541092 1425.441162,145.628784 1427.034668,142.360535
	C1427.062134,142.004593 1427.031982,142.086517 1427.031982,142.086517
z"/>
<path fill="#000000" opacity="1.000000" stroke="none" fill-opacity="0"
	d="
M1554.110229,133.016037
	C1557.414917,131.672852 1560.327393,130.345779 1563.854614,128.738586
	C1563.698486,130.086166 1563.732422,131.097748 1563.452637,132.013474
	C1558.485474,148.271439 1550.648438,162.835297 1539.149048,175.552689
	C1532.042358,183.412079 1524.349609,190.083191 1513.878296,192.332275
	C1511.303955,192.885254 1507.668701,191.257141 1505.446533,189.476669
	C1504.403320,188.640900 1504.845825,184.698395 1505.827881,182.786896
	C1513.169067,168.497925 1520.809814,154.362671 1528.385010,140.194382
	C1528.591187,139.808655 1529.116455,139.593491 1529.940308,138.948624
	C1530.562622,143.513000 1531.133179,147.698151 1531.703857,151.883286
	C1535.214966,140.700897 1545.073608,137.561600 1554.110229,133.016037
z"/>
<path fill="#000000" opacity="1.000000" stroke="none" fill-opacity="0"
	d="
M1427.104126,141.992889
	C1426.431030,141.139359 1425.059204,140.262421 1425.102173,139.461090
	C1425.554443,130.997620 1422.186768,123.754242 1418.238525,116.569489
	C1424.621948,107.904602 1432.189209,100.384163 1442.039185,95.518898
	C1444.442871,94.331589 1447.130005,93.503868 1449.778198,93.075241
	C1453.966064,92.397438 1457.501953,94.285202 1458.853271,98.138611
	C1460.575928,103.050697 1460.240601,107.966286 1458.524170,113.283035
	C1454.989746,124.231049 1445.965088,128.468933 1437.169556,133.489380
	C1433.305420,135.694931 1429.970947,138.828232 1426.713989,141.813385
	C1427.031982,142.086517 1427.062134,142.004593 1427.104126,141.992889
z"/>
<path fill="#000000" opacity="1.000000" stroke="none" fill-opacity="0"
	d="
M1569.872803,79.902100
	C1570.203125,92.872108 1570.117432,105.668808 1566.898560,118.157036
	C1566.352539,120.275627 1564.889282,122.698456 1563.115967,123.866104
	C1555.620728,128.801559 1547.827026,133.281769 1540.193481,138.010818
	C1538.562500,139.021164 1537.144531,140.375336 1535.528076,141.650238
	C1533.336792,134.118561 1535.370239,127.760971 1539.875122,121.491623
	C1549.727173,107.780998 1559.135132,93.751274 1568.977783,79.631828
	C1569.376831,79.516899 1569.522339,79.622017 1569.872803,79.902100
z"/>
<path fill="#000000" opacity="1.000000" stroke="none" fill-opacity="0"
	d="
M1443.406006,191.570251
	C1443.114624,192.109909 1442.675049,192.424744 1442.235596,192.739578
	C1442.276001,192.199951 1442.316528,191.660324 1442.637451,191.024048
	C1443.031128,191.066757 1443.144409,191.206070 1443.406006,191.570251
z"/>
<path fill="#000000" opacity="1.000000" stroke="none" fill-opacity="0"
	d="
M1497.593994,163.429749
	C1497.885376,162.890076 1498.324829,162.575256 1498.764404,162.260406
	C1498.723877,162.800049 1498.683472,163.339676 1498.362549,163.975952
	C1497.968872,163.933243 1497.855591,163.793930 1497.593994,163.429749
z"/>
<path fill="#000000" opacity="1.000000" stroke="none" fill-opacity="0"
	d="
M254.023300,110.011154
	C251.553284,117.055901 249.105408,123.682648 246.657547,130.309387
	C246.137848,130.130463 245.618164,129.951523 245.098465,129.772583
	C246.721146,124.255386 248.506516,118.779869 249.932800,113.212349
	C252.940414,101.471970 254.613037,89.829216 250.138046,77.857124
	C246.344681,67.708534 239.011993,62.100071 229.071503,60.122944
	C210.923462,56.513363 194.706726,62.768581 179.146484,71.354607
	C165.738571,78.752998 154.747314,88.871773 146.136124,101.453392
	C138.102417,113.191284 133.621582,126.169174 133.993591,140.594528
	C134.315079,153.060532 140.151871,161.751465 150.353912,164.708740
	C151.399338,165.011765 152.576218,164.861343 152.754135,164.870911
	C151.178406,156.132523 149.609924,147.434250 148.041443,138.735962
	C148.436798,138.498077 148.832153,138.260178 149.227509,138.022293
	C156.091278,147.774384 165.264694,150.914841 175.905731,146.373489
	C182.829712,143.418472 184.506104,136.745865 183.892776,129.158707
	C182.505569,132.845596 181.960831,136.679703 179.901108,139.341476
	C172.271240,149.201492 160.198257,144.772232 153.927597,135.714355
	C149.388992,129.158386 150.542694,122.404549 153.096771,115.771011
	C163.842926,87.860710 184.414185,70.993973 213.138245,64.222031
	C219.578979,62.703571 226.756287,63.384903 233.460693,64.180740
	C239.632156,64.913315 242.859299,69.937096 244.996750,75.468277
	C248.272903,83.946091 246.756042,92.372681 244.645721,100.761406
	C240.943542,115.477829 232.934753,128.207642 225.327393,141.009338
	C215.459320,157.615372 203.482254,172.757416 189.371887,185.972336
	C175.621338,198.850281 160.790543,210.441849 141.792679,214.553619
	C128.598160,217.409378 115.649490,217.558945 104.317314,208.092606
	C98.050888,202.857971 95.054794,196.006088 93.013931,188.490936
	C88.260849,170.988388 92.494026,154.280838 98.637344,138.156342
	C102.772873,127.301758 108.110939,116.722382 114.337875,106.926926
	C117.324104,102.229340 123.580315,99.582489 128.419998,96.096298
	C143.766129,85.041954 159.031113,73.869804 174.544571,63.054630
	C185.813736,55.198364 198.153275,49.147171 211.605194,46.320694
	C224.509918,43.609196 236.521194,46.472576 248.193329,53.262077
	C256.430420,58.053482 255.072800,65.864182 256.760162,72.490891
	C259.754456,84.250381 257.591583,96.174057 254.957703,107.873421
	C254.820190,108.484169 254.357010,109.021599 254.023300,110.011154
z"/>
<path fill="#000000" opacity="1.000000" stroke="none" fill-opacity="0"
	d="
M132.411652,51.565605
	C126.444618,57.955402 119.784927,63.682030 114.349121,70.399086
	C107.671211,78.651009 100.950455,87.198128 96.246628,96.615791
	C92.318024,104.481369 85.881950,107.404388 78.929802,109.831490
	C67.905823,113.680145 56.725471,117.636742 45.277374,119.555565
	C34.235104,121.406357 22.239134,121.533997 13.110638,113.383614
	C0.890508,102.472870 0.316655,92.817902 7.222893,77.480667
	C14.635232,61.019497 28.580069,52.210827 45.032513,47.121151
	C61.719379,41.958954 78.869347,42.324833 96.152641,43.820892
	C108.170143,44.861145 119.753777,47.250137 131.531982,50.953823
	C132.035965,51.062016 132.148849,51.201824 132.411652,51.565605
z"/>
<path fill="#000000" opacity="1.000000" stroke="none" fill-opacity="0"
	d="
M142.224411,74.420311
	C158.731323,58.006023 177.381088,44.897087 199.748245,37.727329
	C212.141159,33.754799 224.797440,31.428135 236.814713,38.536842
	C241.603775,41.369770 245.485245,45.736969 250.173767,49.742214
	C240.161743,47.313408 231.370941,44.123692 222.356430,43.254917
	C210.413895,42.103954 198.867096,45.775120 188.258057,51.098331
	C173.224762,58.641472 158.597946,66.994774 143.230957,74.866386
	C142.517792,74.627396 142.371094,74.523849 142.224411,74.420311
z"/>
<path fill="#000000" opacity="1.000000" stroke="none" fill-opacity="0"
	d="
M142.869629,74.905418
	C142.511124,75.322868 141.947464,75.565842 141.383789,75.808807
	C141.515488,75.473488 141.647171,75.138161 142.001648,74.611572
	C142.371094,74.523849 142.517792,74.627396 142.869629,74.905418
z"/>
<path fill="#000000" opacity="1.000000" stroke="none" fill-opacity="0"
	d="
M679.917786,190.927490
	C683.275391,182.988037 686.005371,174.704041 690.132019,167.186737
	C696.997925,154.679367 704.751038,142.658539 712.168030,130.455551
	C712.561401,129.808273 713.301636,129.371750 714.932617,127.865189
	C717.528931,136.220093 719.863220,143.731888 721.769104,149.865173
	C724.964844,146.205490 729.263672,141.282501 733.562561,136.359528
	C734.079407,136.750412 734.596313,137.141312 735.113159,137.532196
	C733.404968,144.900192 730.179443,151.798431 724.511780,156.774170
	C713.761841,166.211868 702.428040,174.988022 691.265564,183.950333
	C688.001709,186.570908 684.497070,188.891586 680.680176,191.347595
	C680.144287,191.206131 680.031006,191.066818 679.917786,190.927490
z"/>
<path fill="#000000" opacity="1.000000" stroke="none" fill-opacity="0"
	d="
M706.305725,81.772781
	C709.717407,87.173988 711.251282,92.190430 704.991943,97.031403
	C701.985718,90.045952 698.745178,83.276115 701.347046,74.704308
	C703.058411,77.178299 704.550964,79.336052 706.305725,81.772781
z"/>
<path fill="#000000" opacity="1.000000" stroke="none" fill-opacity="0"
	d="
M680.405884,191.570282
	C680.114624,192.109955 679.675110,192.424789 679.235596,192.739624
	C679.276062,192.200012 679.316589,191.660370 679.637451,191.024109
	C680.031006,191.066818 680.144287,191.206131 680.405884,191.570282
z"/>
<path fill="#000000" opacity="1.000000" stroke="none" fill-opacity="0"
	d="
M346.300049,90.198517
	C335.619263,104.072090 319.941528,107.041245 304.089294,110.532997
	C307.994751,104.253380 311.868652,97.953636 315.846741,91.720406
	C316.327209,90.967628 317.293854,90.299828 318.164978,90.055374
	C332.700684,85.976372 338.342987,81.540833 344.885803,69.472580
	C345.700378,74.981979 346.682953,81.356735 347.529297,87.749527
	C347.618958,88.426910 346.909149,89.210136 346.300049,90.198517
z"/>
<path fill="#000000" opacity="1.000000" stroke="none" fill-opacity="0"
	d="
M309.780579,138.719391
	C308.718414,140.019638 307.914856,141.050034 307.267303,141.880417
	C305.340515,133.803619 303.508301,126.123322 301.616272,118.192268
	C306.485901,117.511513 311.914795,116.888985 317.291168,115.961754
	C322.436554,115.074356 327.527313,113.870331 333.150604,112.699615
	C330.476807,117.944954 328.659180,124.058815 324.809174,128.348648
	C320.939087,132.660858 315.045837,135.157364 309.780579,138.719391
z"/>
<path fill="#000000" opacity="1.000000" stroke="none" fill-opacity="0"
	d="
M319.224426,86.420288
	C326.843567,74.995377 334.462738,63.570473 342.364014,51.722519
	C345.833618,65.455635 336.212311,81.388374 320.239288,86.865700
	C319.517792,86.627380 319.371124,86.523834 319.224426,86.420288
z"/>
<path fill="#000000" opacity="1.000000" stroke="none" fill-opacity="0"
	d="
M306.226624,61.368675
	C302.576019,68.337616 299.123016,74.980362 295.672119,81.619034
	C288.917999,75.616554 290.153473,61.892792 302.198517,59.481205
	C303.452637,59.230110 305.008423,60.485878 306.226624,61.368675
z"/>
<path fill="#000000" opacity="1.000000" stroke="none" fill-opacity="0"
	d="
M319.869629,86.905411
	C319.511108,87.322861 318.947449,87.565826 318.383759,87.808792
	C318.515472,87.473473 318.647186,87.138145 319.001648,86.611557
	C319.371124,86.523834 319.517792,86.627380 319.869629,86.905411
z"/>
<path fill="#000000" opacity="1.000000" stroke="none" fill-opacity="0"
	d="
M924.271973,107.231247
	C927.158813,102.357933 929.670654,97.682373 932.462036,93.180115
	C933.273987,91.870468 934.727173,90.514427 936.154236,90.098564
	C950.824829,85.823486 956.407288,81.481148 963.473572,68.348007
	C963.473572,71.644135 963.177185,74.840988 963.556641,77.955521
	C963.939026,81.094551 966.006958,84.343208 965.469543,87.191551
	C964.921814,90.094063 962.571228,93.124634 960.193970,95.133385
	C949.332092,104.311638 936.194458,108.334518 921.866333,111.337395
	C922.815063,109.631554 923.409241,108.563278 924.271973,107.231247
z"/>
<path fill="#000000" opacity="1.000000" stroke="none" fill-opacity="0"
	d="
M940.242615,131.262375
	C934.753967,134.663940 929.534485,137.797104 924.917725,140.568481
	C923.349915,133.874786 921.552429,126.200554 919.744324,118.480606
	C929.702393,116.742760 940.309814,114.891602 951.018982,113.022690
	C948.485291,117.986916 945.860535,123.266670 943.078491,128.462234
	C942.536621,129.474121 941.383118,130.158508 940.242615,131.262375
z"/>
<path fill="#000000" opacity="1.000000" stroke="none" fill-opacity="0"
	d="
M937.224487,86.420250
	C944.843628,74.995369 952.462769,63.570477 960.364014,51.722588
	C963.833679,65.455719 954.212036,81.388580 938.239319,86.865723
	C937.517883,86.627396 937.371216,86.523819 937.224487,86.420250
z"/>
<path fill="#000000" opacity="1.000000" stroke="none" fill-opacity="0"
	d="
M922.256714,65.323326
	C919.212708,70.982880 916.391541,76.334885 913.577637,81.673210
	C908.649841,77.202377 908.721741,68.660347 911.581665,64.978729
	C914.991028,60.589993 919.559021,57.596863 924.780029,60.365879
	C924.013916,61.914459 923.246704,63.465118 922.256714,65.323326
z"/>
<path fill="#000000" opacity="1.000000" stroke="none" fill-opacity="0"
	d="
M937.869629,86.905426
	C937.511108,87.322845 936.947449,87.565811 936.383728,87.808769
	C936.515442,87.473434 936.647156,87.138107 937.001709,86.611511
	C937.371216,86.523819 937.517883,86.627396 937.869629,86.905426
z"/>
<path fill="#000000" opacity="1.000000" stroke="none" fill-opacity="0"
	d="
M1002.405884,192.570282
	C1002.114624,193.109924 1001.675049,193.424759 1001.235474,193.739624
	C1001.276001,193.199997 1001.316467,192.660355 1001.637329,192.024109
	C1002.031006,192.066818 1002.144287,192.206131 1002.405884,192.570282
z"/>
</svg>